<svg xmlns="http://www.w3.org/2000/svg" width="19" height="19" viewBox="0 0 19 19">
  <metadata><?xpacket begin="﻿" id="W5M0MpCehiHzreSzNTczkc9d"?>
<x:xmpmeta xmlns:x="adobe:ns:meta/" x:xmptk="Adobe XMP Core 5.6-c138 79.159824, 2016/09/14-01:09:01        ">
   <rdf:RDF xmlns:rdf="http://www.w3.org/1999/02/22-rdf-syntax-ns#">
      <rdf:Description rdf:about=""/>
   </rdf:RDF>
</x:xmpmeta>
                                                                                                    
                                                                                                    
                                                                                                    
                                                                                                    
                                                                                                    
                                                                                                    
                                                                                                    
                                                                                                    
                                                                                                    
                                                                                                    
                                                                                                    
                                                                                                    
                                                                                                    
                                                                                                    
                                                                                                    
                                                                                                    
                                                                                                    
                                                                                                    
                                                                                                    
                                                                                                    
                           
<?xpacket end="w"?></metadata>
<defs>
    <style>
      .cls-1 {
        fill: #d93a2f;
        fill-rule: evenodd;
      }
    </style>
  </defs>
  <path id="Forma_1" data-name="Forma 1" class="cls-1" d="M7.419,12.109L7.141,13.762a0.6,0.6,0,0,0,.873.635L9.5,13.621,10.986,14.4a0.6,0.6,0,0,0,.874-0.635l-0.278-1.653,1.2-1.174a0.6,0.6,0,0,0-.334-1.028l-1.658-.246L10.04,8.16a0.6,0.6,0,0,0-1.08,0l-0.746,1.5-1.658.246a0.6,0.6,0,0,0-.334,1.028Zm9.205-9.75h-1.9V1.305A0.875,0.875,0,0,0,13.851.43H13.712a0.875,0.875,0,0,0-.875.875V2.359H6.14V1.305A0.875,0.875,0,0,0,5.266.43H5.127a0.875,0.875,0,0,0-.875.875V2.359H2.376a1.8,1.8,0,0,0-1.8,1.8V16.769a1.8,1.8,0,0,0,1.8,1.8H16.624a1.8,1.8,0,0,0,1.8-1.8V4.16A1.8,1.8,0,0,0,16.624,2.359ZM16.389,16.534H2.611V6.718H16.389v9.815Z"/>
</svg>
