<svg xmlns="http://www.w3.org/2000/svg" width="25" height="25" viewBox="0 0 25 25">
  <metadata><?xpacket begin="﻿" id="W5M0MpCehiHzreSzNTczkc9d"?>
<x:xmpmeta xmlns:x="adobe:ns:meta/" x:xmptk="Adobe XMP Core 5.6-c138 79.159824, 2016/09/14-01:09:01        ">
   <rdf:RDF xmlns:rdf="http://www.w3.org/1999/02/22-rdf-syntax-ns#">
      <rdf:Description rdf:about=""/>
   </rdf:RDF>
</x:xmpmeta>
                                                                                                    
                                                                                                    
                                                                                                    
                                                                                                    
                                                                                                    
                                                                                                    
                                                                                                    
                                                                                                    
                                                                                                    
                                                                                                    
                                                                                                    
                                                                                                    
                                                                                                    
                                                                                                    
                                                                                                    
                                                                                                    
                                                                                                    
                                                                                                    
                                                                                                    
                                                                                                    
                           
<?xpacket end="w"?></metadata>
<defs>
    <style>
      .cls-1 {
        fill: #fff;
        fill-rule: evenodd;
      }
    </style>
  </defs>
  <path id="Icon-Training" class="cls-1" d="M11.538,12.164a1.611,1.611,0,0,0-.32-0.032,1.65,1.65,0,1,0,1.65,1.65,1.681,1.681,0,0,0-.031-0.319l-1.12.873a0.749,0.749,0,0,1-1.051-1.052ZM18.8,9.778A8.582,8.582,0,1,1,15.223,6.2a20.1,20.1,0,0,1,2.528-1.529,11.229,11.229,0,1,0,2.581,2.581A20.227,20.227,0,0,1,18.8,9.778ZM12.213,9.7a5.376,5.376,0,0,1,1.11-1.819,6.267,6.267,0,1,0,3.8,3.8,4.724,4.724,0,0,1-2.381,1.242,3.633,3.633,0,1,1-2.663-2.662A3.244,3.244,0,0,1,12.213,9.7ZM22.889,2.111c1.2-1.2-.7-2.932-1.96-1.673-0.835.835-.6,2.635-0.43,3.488l-0.43.43c-6.046,2.537-8.031,5.536-7.1,7.106l-1.753,2.25a0.053,0.053,0,0,0,.075.074l2.249-1.753c1.569,0.929,4.568-1.056,7.105-7.1l0.43-.43c0.853,0.171,2.653.4,3.489-.431C25.821,2.812,24.087.914,22.889,2.111Z"/>
</svg>
