<svg xmlns="http://www.w3.org/2000/svg" width="21" height="21" viewBox="0 0 21 21">
  <metadata><?xpacket begin="﻿" id="W5M0MpCehiHzreSzNTczkc9d"?>
<x:xmpmeta xmlns:x="adobe:ns:meta/" x:xmptk="Adobe XMP Core 5.6-c138 79.159824, 2016/09/14-01:09:01        ">
   <rdf:RDF xmlns:rdf="http://www.w3.org/1999/02/22-rdf-syntax-ns#">
      <rdf:Description rdf:about=""/>
   </rdf:RDF>
</x:xmpmeta>
                                                                                                    
                                                                                                    
                                                                                                    
                                                                                                    
                                                                                                    
                                                                                                    
                                                                                                    
                                                                                                    
                                                                                                    
                                                                                                    
                                                                                                    
                                                                                                    
                                                                                                    
                                                                                                    
                                                                                                    
                                                                                                    
                                                                                                    
                                                                                                    
                                                                                                    
                                                                                                    
                           
<?xpacket end="w"?></metadata>
<defs>
    <style>
      .cls-1 {
        fill: #fff;
        fill-rule: evenodd;
      }
    </style>
  </defs>
  <path id="Icon-Absensi" class="cls-1" d="M7.788,11.511a0.449,0.449,0,0,0-.454-0.443H5.75a0.449,0.449,0,0,0-.454.443v1.548a0.449,0.449,0,0,0,.454.444H7.334a0.449,0.449,0,0,0,.454-0.444V11.511h0Zm3.958,0a0.448,0.448,0,0,0-.453-0.443H9.708a0.449,0.449,0,0,0-.454.443v1.548a0.449,0.449,0,0,0,.454.444h1.584a0.448,0.448,0,0,0,.453-0.444V11.511Zm3.958,0a0.449,0.449,0,0,0-.454-0.443H13.666a0.449,0.449,0,0,0-.454.443v1.548a0.449,0.449,0,0,0,.454.444H15.25a0.449,0.449,0,0,0,.454-0.444V11.511Zm-7.916,3.87a0.449,0.449,0,0,0-.454-0.444H5.75a0.449,0.449,0,0,0-.454.444v1.548a0.449,0.449,0,0,0,.454.444H7.334a0.449,0.449,0,0,0,.454-0.444V15.381h0Zm3.958,0a0.448,0.448,0,0,0-.453-0.444H9.708a0.449,0.449,0,0,0-.454.444v1.548a0.449,0.449,0,0,0,.454.444h1.584a0.448,0.448,0,0,0,.453-0.444V15.381Zm3.958,0a0.449,0.449,0,0,0-.453-0.444H13.666a0.449,0.449,0,0,0-.454.444v1.548a0.449,0.449,0,0,0,.454.444H15.25a0.449,0.449,0,0,0,.453-0.444V15.381h0ZM18.535,2.9V5.267a1.954,1.954,0,0,1-1.98,1.93H15.306a1.964,1.964,0,0,1-1.992-1.93V2.893H7.685V5.267A1.964,1.964,0,0,1,5.694,7.2H4.445a1.954,1.954,0,0,1-1.98-1.93V2.9A1.779,1.779,0,0,0,.725,4.653V18.512a1.781,1.781,0,0,0,1.792,1.763H18.483a1.783,1.783,0,0,0,1.792-1.763V4.653A1.779,1.779,0,0,0,18.535,2.9Zm-0.58,14.747a0.766,0.766,0,0,1-.775.758H3.786a0.766,0.766,0,0,1-.775-0.758V10.49a0.766,0.766,0,0,1,.775-0.758H17.18a0.766,0.766,0,0,1,.775.758v7.159h0ZM4.44,5.929H5.676a0.671,0.671,0,0,0,.679-0.664V1.389A0.671,0.671,0,0,0,5.676.725H4.44a0.671,0.671,0,0,0-.679.664V5.266A0.671,0.671,0,0,0,4.44,5.929Zm10.85,0h1.235A0.671,0.671,0,0,0,17.2,5.266V1.389A0.671,0.671,0,0,0,16.526.725H15.29a0.671,0.671,0,0,0-.679.664V5.266A0.671,0.671,0,0,0,15.29,5.929Z"/>
</svg>
