<svg xmlns="http://www.w3.org/2000/svg" width="22" height="17" viewBox="0 0 22 17">
  <metadata><?xpacket begin="﻿" id="W5M0MpCehiHzreSzNTczkc9d"?>
<x:xmpmeta xmlns:x="adobe:ns:meta/" x:xmptk="Adobe XMP Core 5.6-c138 79.159824, 2016/09/14-01:09:01        ">
   <rdf:RDF xmlns:rdf="http://www.w3.org/1999/02/22-rdf-syntax-ns#">
      <rdf:Description rdf:about=""/>
   </rdf:RDF>
</x:xmpmeta>
                                                                                                    
                                                                                                    
                                                                                                    
                                                                                                    
                                                                                                    
                                                                                                    
                                                                                                    
                                                                                                    
                                                                                                    
                                                                                                    
                                                                                                    
                                                                                                    
                                                                                                    
                                                                                                    
                                                                                                    
                                                                                                    
                                                                                                    
                                                                                                    
                                                                                                    
                                                                                                    
                           
<?xpacket end="w"?></metadata>
<defs>
    <style>
      .cls-1 {
        fill: #bcbcbc;
        fill-rule: evenodd;
      }
    </style>
  </defs>
  <path id="Icon-Mail" class="cls-1" d="M2.912,4.988q0.4,0.276,2.409,1.64T8.4,8.728q0.118,0.081.5,0.351T9.534,9.516q0.253,0.167.611,0.374a3.6,3.6,0,0,0,.676.311,1.9,1.9,0,0,0,.588.1h0.024a1.9,1.9,0,0,0,.588-0.1A3.586,3.586,0,0,0,12.7,9.89q0.359-.207.611-0.374t0.635-.438q0.382-.271.5-0.351l5.5-3.74a5.527,5.527,0,0,0,1.434-1.415,3,3,0,0,0,.576-1.738,1.746,1.746,0,0,0-.558-1.3A1.836,1.836,0,0,0,20.07-.007H2.771a1.694,1.694,0,0,0-1.393.6,2.292,2.292,0,0,0-.488,1.5,2.656,2.656,0,0,0,.646,1.571A5.775,5.775,0,0,0,2.912,4.988ZM20.775,6.219q-3.854,2.555-5.852,3.97-0.67.483-1.087,0.754a6.774,6.774,0,0,1-1.111.553,3.445,3.445,0,0,1-1.293.282H11.409a3.446,3.446,0,0,1-1.293-.282,6.773,6.773,0,0,1-1.111-.553q-0.417-.27-1.087-0.754Q6.332,9.05,2.078,6.219a6.2,6.2,0,0,1-1.187-1v9.138a1.754,1.754,0,0,0,.552,1.3,1.829,1.829,0,0,0,1.328.541h17.3a1.829,1.829,0,0,0,1.328-.541,1.754,1.754,0,0,0,.552-1.3V5.218A6.447,6.447,0,0,1,20.775,6.219Z"/>
</svg>
