<svg xmlns="http://www.w3.org/2000/svg" width="18" height="19" viewBox="0 0 18 19">
  <metadata><?xpacket begin="﻿" id="W5M0MpCehiHzreSzNTczkc9d"?>
<x:xmpmeta xmlns:x="adobe:ns:meta/" x:xmptk="Adobe XMP Core 5.6-c138 79.159824, 2016/09/14-01:09:01        ">
   <rdf:RDF xmlns:rdf="http://www.w3.org/1999/02/22-rdf-syntax-ns#">
      <rdf:Description rdf:about=""/>
   </rdf:RDF>
</x:xmpmeta>
                                                                                                    
                                                                                                    
                                                                                                    
                                                                                                    
                                                                                                    
                                                                                                    
                                                                                                    
                                                                                                    
                                                                                                    
                                                                                                    
                                                                                                    
                                                                                                    
                                                                                                    
                                                                                                    
                                                                                                    
                                                                                                    
                                                                                                    
                                                                                                    
                                                                                                    
                                                                                                    
                           
<?xpacket end="w"?></metadata>
<defs>
    <style>
      .cls-1 {
        fill: #d93a2f;
        fill-rule: evenodd;
      }
    </style>
  </defs>
  <path id="Icon-Birthday" class="cls-1" d="M9.6,10.391h6.574v8.484H9.6V10.391Zm-7.773,0H8.4v8.484H1.827V10.391Zm12.3-6.808A2.362,2.362,0,0,0,14.4,2.466,2.32,2.32,0,0,0,12.11.125,3.547,3.547,0,0,0,9.483,1.478,4.769,4.769,0,0,0,9,2.158a4.768,4.768,0,0,0-.483-0.68A3.547,3.547,0,0,0,5.89.125,2.32,2.32,0,0,0,3.6,2.466a2.363,2.363,0,0,0,.279,1.118H0.75V9.169H8.4V3.583H9.6V9.169H17.25V3.583H14.125Zm-8.235,0a1.118,1.118,0,0,1,0-2.235A2.947,2.947,0,0,1,8.313,3.583H5.89Zm6.22,0H9.687A2.947,2.947,0,0,1,12.11,1.348,1.118,1.118,0,0,1,12.11,3.583Z"/>
</svg>
