<svg xmlns="http://www.w3.org/2000/svg" width="20" height="23" viewBox="0 0 20 23">
  <metadata><?xpacket begin="﻿" id="W5M0MpCehiHzreSzNTczkc9d"?>
<x:xmpmeta xmlns:x="adobe:ns:meta/" x:xmptk="Adobe XMP Core 5.6-c138 79.159824, 2016/09/14-01:09:01        ">
   <rdf:RDF xmlns:rdf="http://www.w3.org/1999/02/22-rdf-syntax-ns#">
      <rdf:Description rdf:about=""/>
   </rdf:RDF>
</x:xmpmeta>
                                                                                                    
                                                                                                    
                                                                                                    
                                                                                                    
                                                                                                    
                                                                                                    
                                                                                                    
                                                                                                    
                                                                                                    
                                                                                                    
                                                                                                    
                                                                                                    
                                                                                                    
                                                                                                    
                                                                                                    
                                                                                                    
                                                                                                    
                                                                                                    
                                                                                                    
                                                                                                    
                           
<?xpacket end="w"?></metadata>
<defs>
    <style>
      .cls-1 {
        fill: #bcbcbc;
        fill-rule: evenodd;
      }
    </style>
  </defs>
  <path id="Icon-Notification" class="cls-1" d="M6.824,19.978c0,0.006,0,.012,0,0.017a2.778,2.778,0,0,0,2.9,2.641,2.778,2.778,0,0,0,2.9-2.641c0-.006,0-0.012,0-0.017H6.824Zm12.145-3.3-2.607-3.491V8.83a6.229,6.229,0,0,0-5.339-5.938V1.552A1.249,1.249,0,0,0,9.72.364a1.249,1.249,0,0,0-1.3,1.187V2.893A6.229,6.229,0,0,0,3.078,8.83v4.356L0.471,16.677A1.111,1.111,0,0,0,.4,17.914a1.339,1.339,0,0,0,1.164.639H17.88a1.339,1.339,0,0,0,1.164-.639A1.111,1.111,0,0,0,18.969,16.677Z"/>
</svg>
