<svg xmlns="http://www.w3.org/2000/svg" width="18" height="21" viewBox="0 0 18 21">
  <metadata><?xpacket begin="﻿" id="W5M0MpCehiHzreSzNTczkc9d"?>
<x:xmpmeta xmlns:x="adobe:ns:meta/" x:xmptk="Adobe XMP Core 5.6-c138 79.159824, 2016/09/14-01:09:01        ">
   <rdf:RDF xmlns:rdf="http://www.w3.org/1999/02/22-rdf-syntax-ns#">
      <rdf:Description rdf:about=""/>
   </rdf:RDF>
</x:xmpmeta>
                                                                                                    
                                                                                                    
                                                                                                    
                                                                                                    
                                                                                                    
                                                                                                    
                                                                                                    
                                                                                                    
                                                                                                    
                                                                                                    
                                                                                                    
                                                                                                    
                                                                                                    
                                                                                                    
                                                                                                    
                                                                                                    
                                                                                                    
                                                                                                    
                                                                                                    
                                                                                                    
                           
<?xpacket end="w"?></metadata>
<defs>
    <style>
      .cls-1 {
        fill: #d93a2f;
        fill-rule: evenodd;
      }
    </style>
  </defs>
  <path class="cls-1" d="M5.2,8.9a4.454,4.454,0,0,0,2.775,3.382,3.09,3.09,0,0,0,2.037,0A4.538,4.538,0,0,0,12.8,8.9c0.212-.017.49-0.309,0.791-1.356C14,6.117,13.561,5.9,13.19,5.939a3.734,3.734,0,0,0,.159-0.587c0.628-3.708-1.229-3.834-1.229-3.834A2.84,2.84,0,0,0,11,.5,3.827,3.827,0,0,0,8.709.018a3.477,3.477,0,0,0-.915.17h0A4.048,4.048,0,0,0,6.786.7a5.267,5.267,0,0,0-1.034.843A4.113,4.113,0,0,0,4.634,3.47a4.125,4.125,0,0,0,.009,1.887h0a3.615,3.615,0,0,0,.159.587c-0.371-.035-0.809.178-0.4,1.608C4.709,8.6,4.988,8.887,5.2,8.9Zm11.088,4.865A14.119,14.119,0,0,1,12.2,11.934L10.764,16.39l-0.27.839,0-.013-0.234.713L9.5,15.82C11.356,13.273,9.124,13.3,9,13.3s-2.356-.03-0.5,2.517L7.745,17.929l-0.234-.713,0,0.013-0.27-.839L5.8,11.934a14.118,14.118,0,0,1-4.092,1.835C0.025,14.19-.055,16.1.011,17.046c0,0,.1,1.282.194,1.848A17.488,17.488,0,0,0,9,21a17.433,17.433,0,0,0,8.795-2.1c0.1-.565.194-1.848,0.194-1.848C18.052,16.1,17.972,14.19,16.288,13.769Z"/>
</svg>
