<svg xmlns="http://www.w3.org/2000/svg" width="19" height="25" viewBox="0 0 19 25">
  <metadata><?xpacket begin="﻿" id="W5M0MpCehiHzreSzNTczkc9d"?>
<x:xmpmeta xmlns:x="adobe:ns:meta/" x:xmptk="Adobe XMP Core 5.6-c138 79.159824, 2016/09/14-01:09:01        ">
   <rdf:RDF xmlns:rdf="http://www.w3.org/1999/02/22-rdf-syntax-ns#">
      <rdf:Description rdf:about=""/>
   </rdf:RDF>
</x:xmpmeta>
                                                                                                    
                                                                                                    
                                                                                                    
                                                                                                    
                                                                                                    
                                                                                                    
                                                                                                    
                                                                                                    
                                                                                                    
                                                                                                    
                                                                                                    
                                                                                                    
                                                                                                    
                                                                                                    
                                                                                                    
                                                                                                    
                                                                                                    
                                                                                                    
                                                                                                    
                                                                                                    
                           
<?xpacket end="w"?></metadata>
<defs>
    <style>
      .cls-1 {
        fill: #fff;
        fill-rule: evenodd;
      }
    </style>
  </defs>
  <path id="Icon-Laporan" class="cls-1" d="M12.465,18.654a0.731,0.731,0,0,1-.5-0.2L9.417,16.042a3.337,3.337,0,0,0-.622,1.937,3.584,3.584,0,0,0,3.67,3.482,3.632,3.632,0,0,0,3.6-2.807h-3.6Zm0-4.157a3.789,3.789,0,0,0-2.042.59L12.76,17.3h3.306A3.632,3.632,0,0,0,12.465,14.5ZM18.254,2.783H15.323V3.6a2.011,2.011,0,0,1-2.059,1.954H5.736A2.011,2.011,0,0,1,3.677,3.6V2.783H0.746a0.741,0.741,0,0,0-.758.72V24.269a0.74,0.74,0,0,0,.758.72H18.254a0.741,0.741,0,0,0,.758-0.719V3.5A0.741,0.741,0,0,0,18.254,2.783ZM2.2,7.606H9.5a0.676,0.676,0,1,1,0,1.349H2.2A0.676,0.676,0,1,1,2.2,7.606ZM6.579,14.5H2.2a0.676,0.676,0,1,1,0-1.349H6.579A0.676,0.676,0,1,1,6.579,14.5Zm0-2.771H2.2a0.676,0.676,0,1,1,0-1.349H6.579A0.676,0.676,0,1,1,6.579,11.726Zm5.886,11.084a4.973,4.973,0,0,1-5.093-4.831,4.973,4.973,0,0,1,5.093-4.831,4.973,4.973,0,0,1,5.093,4.831A4.973,4.973,0,0,1,12.465,22.811ZM5.736,4.2h7.528A0.622,0.622,0,0,0,13.9,3.6V2a0.622,0.622,0,0,0-.637-0.6h-2.3A0.694,0.694,0,0,1,10.249.723a0.75,0.75,0,0,0-1.5,0A0.694,0.694,0,0,1,8.04,1.4h-2.3A0.622,0.622,0,0,0,5.1,2V3.6A0.622,0.622,0,0,0,5.736,4.2Z"/>
</svg>
