<svg xmlns="http://www.w3.org/2000/svg" width="24" height="21" viewBox="0 0 24 21">
  <metadata><?xpacket begin="﻿" id="W5M0MpCehiHzreSzNTczkc9d"?>
<x:xmpmeta xmlns:x="adobe:ns:meta/" x:xmptk="Adobe XMP Core 5.6-c138 79.159824, 2016/09/14-01:09:01        ">
   <rdf:RDF xmlns:rdf="http://www.w3.org/1999/02/22-rdf-syntax-ns#">
      <rdf:Description rdf:about=""/>
   </rdf:RDF>
</x:xmpmeta>
                                                                                                    
                                                                                                    
                                                                                                    
                                                                                                    
                                                                                                    
                                                                                                    
                                                                                                    
                                                                                                    
                                                                                                    
                                                                                                    
                                                                                                    
                                                                                                    
                                                                                                    
                                                                                                    
                                                                                                    
                                                                                                    
                                                                                                    
                                                                                                    
                                                                                                    
                                                                                                    
                           
<?xpacket end="w"?></metadata>
<defs>
    <style>
      .cls-1 {
        fill: #fff;
        fill-rule: evenodd;
      }
    </style>
  </defs>
  <path id="Icon-Dealer" class="cls-1" d="M18.916,11.361a1.042,1.042,0,0,0-.273.038l-0.519.141-0.664-1.6A2.355,2.355,0,0,0,15.445,8.6h-6.9A2.355,2.355,0,0,0,6.53,9.94l-0.663,1.6L5.358,11.4a1.043,1.043,0,0,0-.273-0.038,0.837,0.837,0,0,0-.847.882v0.019a1.087,1.087,0,0,0,.889,1.063,8.084,8.084,0,0,0-.5,2.539v3.324A1.09,1.09,0,0,0,5.722,20.27h0.63a1.09,1.09,0,0,0,1.094-1.082V18.494h9.1v0.694a1.09,1.09,0,0,0,1.094,1.082h0.63a1.09,1.09,0,0,0,1.094-1.082V15.864a8.084,8.084,0,0,0-.5-2.538,1.087,1.087,0,0,0,.9-1.064V12.243A0.837,0.837,0,0,0,18.916,11.361ZM6.57,12.649l1.055-2.542a1.415,1.415,0,0,1,1.208-.8h6.323a1.415,1.415,0,0,1,1.208.8l1.055,2.542a0.541,0.541,0,0,1-.543.8H7.113A0.541,0.541,0,0,1,6.57,12.649Zm2.645,3.817a0.437,0.437,0,0,1-.438.433h-2.1a0.437,0.437,0,0,1-.438-0.433V15.581a0.437,0.437,0,0,1,.438-0.433h2.1a0.437,0.437,0,0,1,.438.433v0.885h0Zm8.514,0a0.436,0.436,0,0,1-.438.433h-2.1a0.437,0.437,0,0,1-.438-0.433V15.581a0.437,0.437,0,0,1,.438-0.433h2.1a0.436,0.436,0,0,1,.438.433v0.885ZM21.391,0.378H2.609A2.043,2.043,0,0,0,.558,2.407V19.495a1.14,1.14,0,0,0,2.279,0V7.553H21.163V19.495a1.14,1.14,0,0,0,2.279,0V2.407A2.043,2.043,0,0,0,21.391.378ZM2.837,4.961H21.163V5.355H2.837V4.961Zm0-.9V3.743H21.163V4.059H2.837Zm0,2.592V6.257H21.163V6.651H2.837Z"/>
</svg>
