<svg xmlns="http://www.w3.org/2000/svg" width="23" height="7" viewBox="0 0 23 7">
  <metadata><?xpacket begin="﻿" id="W5M0MpCehiHzreSzNTczkc9d"?>
<x:xmpmeta xmlns:x="adobe:ns:meta/" x:xmptk="Adobe XMP Core 5.6-c138 79.159824, 2016/09/14-01:09:01        ">
   <rdf:RDF xmlns:rdf="http://www.w3.org/1999/02/22-rdf-syntax-ns#">
      <rdf:Description rdf:about=""/>
   </rdf:RDF>
</x:xmpmeta>
                                                                                                    
                                                                                                    
                                                                                                    
                                                                                                    
                                                                                                    
                                                                                                    
                                                                                                    
                                                                                                    
                                                                                                    
                                                                                                    
                                                                                                    
                                                                                                    
                                                                                                    
                                                                                                    
                                                                                                    
                                                                                                    
                                                                                                    
                                                                                                    
                                                                                                    
                                                                                                    
                           
<?xpacket end="w"?></metadata>
<defs>
    <style>
      .cls-1 {
        fill: #bcbcbc;
        fill-rule: evenodd;
      }
    </style>
  </defs>
  <path id="Icon-More" class="cls-1" d="M3.231,0.665A2.8,2.8,0,0,0,.475,3.5,2.8,2.8,0,0,0,3.231,6.335,2.8,2.8,0,0,0,5.988,3.5,2.8,2.8,0,0,0,3.231.665Zm16.537,0A2.8,2.8,0,0,0,17.013,3.5a2.757,2.757,0,1,0,5.512,0A2.8,2.8,0,0,0,19.769.665Zm-8.269,0A2.8,2.8,0,0,0,8.744,3.5a2.757,2.757,0,1,0,5.513,0A2.8,2.8,0,0,0,11.5.665Z"/>
</svg>
