<svg xmlns="http://www.w3.org/2000/svg" width="21" height="18" viewBox="0 0 21 18">
  <metadata><?xpacket begin="﻿" id="W5M0MpCehiHzreSzNTczkc9d"?>
<x:xmpmeta xmlns:x="adobe:ns:meta/" x:xmptk="Adobe XMP Core 5.6-c138 79.159824, 2016/09/14-01:09:01        ">
   <rdf:RDF xmlns:rdf="http://www.w3.org/1999/02/22-rdf-syntax-ns#">
      <rdf:Description rdf:about=""/>
   </rdf:RDF>
</x:xmpmeta>
                                                                                                    
                                                                                                    
                                                                                                    
                                                                                                    
                                                                                                    
                                                                                                    
                                                                                                    
                                                                                                    
                                                                                                    
                                                                                                    
                                                                                                    
                                                                                                    
                                                                                                    
                                                                                                    
                                                                                                    
                                                                                                    
                                                                                                    
                                                                                                    
                                                                                                    
                                                                                                    
                           
<?xpacket end="w"?></metadata>
<defs>
    <style>
      .cls-1 {
        fill: #fff;
        fill-rule: evenodd;
      }
    </style>
  </defs>
  <path id="Icon-Karyawan" class="cls-1" d="M12.673,3.088a3.9,3.9,0,0,1,1.776,2.888,3.015,3.015,0,0,0,1.3.3,3.109,3.109,0,0,0,3.08-3.137A3.079,3.079,0,1,0,12.673,3.088ZM10.655,9.512A3.138,3.138,0,1,0,7.574,6.375,3.109,3.109,0,0,0,10.655,9.512Zm1.306,0.214H9.348A3.986,3.986,0,0,0,5.4,13.743V17l0.008,0.051,0.22,0.07A17.653,17.653,0,0,0,10.995,18a10.838,10.838,0,0,0,4.682-.9L15.883,17H15.9V13.743A3.985,3.985,0,0,0,11.961,9.726Zm5.1-3.239H14.464A3.9,3.9,0,0,1,13.293,9.18a4.762,4.762,0,0,1,3.347,4.568v1a10.454,10.454,0,0,0,4.134-.885l0.206-.106H21V10.5A3.985,3.985,0,0,0,17.057,6.487ZM5.251,6.273a3.018,3.018,0,0,0,1.638-.484A3.9,3.9,0,0,1,8.321,3.312c0-.059.009-0.117,0.009-0.176A3.109,3.109,0,0,0,5.251,0a3.109,3.109,0,0,0-3.08,3.138A3.109,3.109,0,0,0,5.251,6.273ZM8.017,9.18A3.9,3.9,0,0,1,6.846,6.5c-0.1-.007-0.191-0.015-0.289-0.015H3.943A3.985,3.985,0,0,0,0,10.5V13.76l0.008,0.05,0.22,0.071a18.164,18.164,0,0,0,4.441.85V13.748A4.763,4.763,0,0,1,8.017,9.18Z"/>
</svg>
