<svg xmlns="http://www.w3.org/2000/svg" width="23" height="19" viewBox="0 0 23 19">
  <metadata><?xpacket begin="﻿" id="W5M0MpCehiHzreSzNTczkc9d"?>
<x:xmpmeta xmlns:x="adobe:ns:meta/" x:xmptk="Adobe XMP Core 5.6-c138 79.159824, 2016/09/14-01:09:01        ">
   <rdf:RDF xmlns:rdf="http://www.w3.org/1999/02/22-rdf-syntax-ns#">
      <rdf:Description rdf:about=""/>
   </rdf:RDF>
</x:xmpmeta>
                                                                                                    
                                                                                                    
                                                                                                    
                                                                                                    
                                                                                                    
                                                                                                    
                                                                                                    
                                                                                                    
                                                                                                    
                                                                                                    
                                                                                                    
                                                                                                    
                                                                                                    
                                                                                                    
                                                                                                    
                                                                                                    
                                                                                                    
                                                                                                    
                                                                                                    
                                                                                                    
                           
<?xpacket end="w"?></metadata>
<defs>
    <style>
      .cls-1 {
        fill: #fff;
        fill-rule: evenodd;
      }
    </style>
  </defs>
  <path id="Icon-Perusahaan" class="cls-1" d="M12.581,11.52V11.036a1.081,1.081,0,0,0-2.163,0V11.52A1.081,1.081,0,0,0,12.581,11.52Zm0.742,0.59a1.909,1.909,0,0,1-3.646,0H2.228a3.08,3.08,0,0,1-1.313-.295v4.88a1.749,1.749,0,0,0,1.756,1.732H20.328a1.749,1.749,0,0,0,1.756-1.732V11.816a3.082,3.082,0,0,1-1.313.295H13.323ZM20.7,3.348H16.484a3.33,3.33,0,0,0-3.3-2.775H9.811a3.331,3.331,0,0,0-3.3,2.775H2.3A1.788,1.788,0,0,0,.473,5.08v4a1.744,1.744,0,0,0,1.756,1.732H9.594a1.869,1.869,0,0,1,.585-1.27c0.01-.01.023-0.018,0.034-0.027a1.93,1.93,0,0,1,.241-0.19c0.031-.02.066-0.034,0.1-0.052a1.875,1.875,0,0,1,.218-0.113A1.919,1.919,0,0,1,10.958,9.1c0.054-.016.106-0.037,0.163-0.048A1.919,1.919,0,0,1,11.5,9.014a1.943,1.943,0,0,1,.379.038c0.056,0.011.108,0.032,0.162,0.048a1.805,1.805,0,0,1,.188.058,1.915,1.915,0,0,1,.217.113c0.032,0.019.067,0.032,0.1,0.053a1.881,1.881,0,0,1,.241.19c0.011,0.01.024,0.018,0.034,0.028a1.868,1.868,0,0,1,.585,1.27h7.365A1.744,1.744,0,0,0,22.526,9.08v-4A1.787,1.787,0,0,0,20.7,3.348Zm-12.492,0A1.693,1.693,0,0,1,9.811,2.194h3.377a1.693,1.693,0,0,1,1.605,1.154H8.206Z"/>
</svg>
