<svg xmlns="http://www.w3.org/2000/svg" width="21" height="21" viewBox="0 0 21 21">
  <metadata><?xpacket begin="﻿" id="W5M0MpCehiHzreSzNTczkc9d"?>
<x:xmpmeta xmlns:x="adobe:ns:meta/" x:xmptk="Adobe XMP Core 5.6-c138 79.159824, 2016/09/14-01:09:01        ">
   <rdf:RDF xmlns:rdf="http://www.w3.org/1999/02/22-rdf-syntax-ns#">
      <rdf:Description rdf:about=""/>
   </rdf:RDF>
</x:xmpmeta>
                                                                                                    
                                                                                                    
                                                                                                    
                                                                                                    
                                                                                                    
                                                                                                    
                                                                                                    
                                                                                                    
                                                                                                    
                                                                                                    
                                                                                                    
                                                                                                    
                                                                                                    
                                                                                                    
                                                                                                    
                                                                                                    
                                                                                                    
                                                                                                    
                                                                                                    
                                                                                                    
                           
<?xpacket end="w"?></metadata>
<defs>
    <style>
      .cls-1 {
        fill: #fff;
        fill-rule: evenodd;
      }
    </style>
  </defs>
  <path id="Icon-Performance" class="cls-1" d="M9.054,11.271a1.112,1.112,0,0,0-1.1-1.124H6.81a1.112,1.112,0,0,0-1.1,1.124V19.1a1.112,1.112,0,0,0,1.1,1.124H7.954a1.112,1.112,0,0,0,1.1-1.124V11.271ZM4.122,14a1.2,1.2,0,0,0-1.184-1.209H1.962A1.2,1.2,0,0,0,.778,14v5.01a1.2,1.2,0,0,0,1.184,1.209H2.938a1.2,1.2,0,0,0,1.184-1.209V14Zm9.78-5.72a1.112,1.112,0,0,0-1.1-1.124H11.659a1.112,1.112,0,0,0-1.1,1.124V19.1a1.112,1.112,0,0,0,1.1,1.124H12.8A1.112,1.112,0,0,0,13.9,19.1V8.283ZM20.034,3.97l-2.145-2.81a0.874,0.874,0,0,0-1.445,0L14.3,3.97a0.692,0.692,0,0,0-.124.726,0.774,0.774,0,0,0,.737.383l0.578,0v14.05a1.087,1.087,0,0,0,1.1,1.092h1.151a1.079,1.079,0,0,0,1.092-1.092V5.071l0.582,0.008a0.779,0.779,0,0,0,.74-0.383A0.69,0.69,0,0,0,20.034,3.97Z"/>
</svg>
