<svg xmlns="http://www.w3.org/2000/svg" width="23" height="23" viewBox="0 0 23 23">
  <metadata><?xpacket begin="﻿" id="W5M0MpCehiHzreSzNTczkc9d"?>
<x:xmpmeta xmlns:x="adobe:ns:meta/" x:xmptk="Adobe XMP Core 5.6-c138 79.159824, 2016/09/14-01:09:01        ">
   <rdf:RDF xmlns:rdf="http://www.w3.org/1999/02/22-rdf-syntax-ns#">
      <rdf:Description rdf:about=""/>
   </rdf:RDF>
</x:xmpmeta>
                                                                                                    
                                                                                                    
                                                                                                    
                                                                                                    
                                                                                                    
                                                                                                    
                                                                                                    
                                                                                                    
                                                                                                    
                                                                                                    
                                                                                                    
                                                                                                    
                                                                                                    
                                                                                                    
                                                                                                    
                                                                                                    
                                                                                                    
                                                                                                    
                                                                                                    
                                                                                                    
                           
<?xpacket end="w"?></metadata>
<defs>
    <style>
      .cls-1 {
        fill: #fff;
        fill-rule: evenodd;
      }
    </style>
  </defs>
  <path id="Icon-Pengaturan" class="cls-1" d="M22.455,10.276a0.718,0.718,0,0,0-.709-0.543A2.434,2.434,0,0,1,20.08,5.5a0.612,0.612,0,0,0,.067-0.831A10.908,10.908,0,0,0,18.4,2.9a0.614,0.614,0,0,0-.838.068,2.541,2.541,0,0,1-2.75.618,2.449,2.449,0,0,1-1.489-2.394A0.611,0.611,0,0,0,12.782.548,11.007,11.007,0,0,0,10.3.542a0.613,0.613,0,0,0-.546.631,2.453,2.453,0,0,1-1.51,2.352A2.548,2.548,0,0,1,5.518,2.9a0.615,0.615,0,0,0-.832-0.07A10.953,10.953,0,0,0,2.9,4.6a0.613,0.613,0,0,0,.066.838,2.443,2.443,0,0,1,.616,2.751,2.549,2.549,0,0,1-2.4,1.49,0.6,0.6,0,0,0-.637.541,11.048,11.048,0,0,0,0,2.507,0.729,0.729,0,0,0,.723.542,2.418,2.418,0,0,1,2.268,1.511A2.452,2.452,0,0,1,2.919,17.5a0.613,0.613,0,0,0-.067.831A10.946,10.946,0,0,0,4.6,20.1a0.613,0.613,0,0,0,.839-0.066,2.537,2.537,0,0,1,2.748-.618,2.445,2.445,0,0,1,1.492,2.393,0.612,0.612,0,0,0,.541.644,10.972,10.972,0,0,0,2.48.007,0.614,0.614,0,0,0,.546-0.631,2.45,2.45,0,0,1,1.508-2.351,2.544,2.544,0,0,1,2.73.621,0.616,0.616,0,0,0,.832.07A10.978,10.978,0,0,0,20.1,18.4a0.612,0.612,0,0,0-.066-0.838,2.443,2.443,0,0,1-.618-2.75,2.468,2.468,0,0,1,2.255-1.495l0.136,0a0.614,0.614,0,0,0,.645-0.541A11.029,11.029,0,0,0,22.455,10.276ZM11.517,15.2a3.677,3.677,0,1,1,3.677-3.677A3.681,3.681,0,0,1,11.517,15.2Z"/>
</svg>
