<?xml version="1.0" standalone="no"?>
<!DOCTYPE svg PUBLIC "-//W3C//DTD SVG 1.1//EN" "http://www.w3.org/Graphics/SVG/1.1/DTD/svg11.dtd" >
<svg xmlns="http://www.w3.org/2000/svg" xmlns:xlink="http://www.w3.org/1999/xlink" version="1.1">
<metadata></metadata>
<defs>
<font id="helvetica_mediumregular" horiz-adv-x="1065" >
<font-face units-per-em="2048" ascent="1638" descent="-410" />
<missing-glyph horiz-adv-x="532" />
<glyph horiz-adv-x="0" />
<glyph unicode="&#xd;" horiz-adv-x="0" />
<glyph unicode=" "  horiz-adv-x="532" />
<glyph unicode="&#x09;" horiz-adv-x="532" />
<glyph unicode="&#xa0;" horiz-adv-x="532" />
<glyph unicode="!" horiz-adv-x="531" d="M133 0h267v250h-267v-250zM142 1030l67 -631h117l66 631l-1 420h-249v-420z" />
<glyph unicode="&#x22;" horiz-adv-x="844" d="M142 877h204v573h-204v-573zM494 877h205v573h-205v-573z" />
<glyph unicode="$" d="M8 441q0 -149 61 -255t170 -161q110 -56 255 -58v-158h86v158q104 5 190 34.5t150 85t99 139.5q36 84 36 194q0 137 -64 226t-166 139t-245 88v428q207 0 213 -215h227q0 129 -57 218t-157.5 133t-225.5 44v160h-86v-160q-120 0 -224 -47q-104 -46 -166.5 -137 t-62.5 -215q0 -137 65 -224q63 -88 158.5 -135t229.5 -86v-491q-258 11 -258 295h-228zM271 1102q0 199 223 199v-410q-223 52 -223 211zM580 146v477q120 -35 184 -84t64 -152q0 -221 -248 -241z" />
<glyph unicode="%" horiz-adv-x="1966" d="M142 1043q0 -105 38 -197t114 -148.5t183 -56.5q110 0 187 57q78 56 116.5 148.5t38.5 196.5q0 105 -39 198q-39 94 -117 151.5t-186 57.5q-106 0 -182 -57.5t-115 -151.5q-38 -95 -38 -198zM325 1043q0 272 152 272q158 0 158 -272q0 -124 -38 -197.5t-120 -73.5 q-152 0 -152 271zM502 -47h156l243 479l535 1039h-154l-250 -486zM1149 373q0 -76 21.5 -148.5t63.5 -129.5q43 -57 106 -90q64 -34 145 -34q110 0 187 57t116 149t39 196q0 105 -39 198.5t-117 151.5t-186 58q-106 0 -182.5 -58t-115 -152t-38.5 -198zM1333 373 q0 272 152 272q158 0 158 -272q0 -123 -38 -197q-38 -73 -120 -73q-152 0 -152 270z" />
<glyph unicode="&#x26;" horiz-adv-x="1295" d="M57 400q0 -132 58.5 -229t161.5 -148.5t233 -51.5q253 0 400 191l135 -162h280l-278 336q96 150 112 354h-198q-7 -111 -47 -194l-219 272q115 64 187 157q73 93 73 212q0 109 -50 187.5t-131.5 117.5t-177.5 39q-97 0 -178 -43t-128 -121t-47 -180q0 -85 36 -155 t108 -163q-149 -80 -239.5 -179.5t-90.5 -239.5zM291 396q0 60 21 103t55 74.5t74.5 55.5t68.5 41l283 -354q-16 -21 -42 -52t-55 -54.5t-74 -39.5t-104 -16q-103 0 -165 63t-62 179zM452 1147q0 72 43.5 118t108.5 46q63 0 102.5 -48.5t39.5 -119.5q0 -78 -43 -129 t-127 -106q-35 47 -61 83.5t-44.5 74.5t-18.5 81z" />
<glyph unicode="'" horiz-adv-x="531" d="M141 877q115 14 182.5 95.5t67.5 199.5v278h-250v-278h125q0 -162 -125 -178v-117z" />
<glyph unicode="(" horiz-adv-x="531" d="M85 547q0 -184 36.5 -347.5t100.5 -304.5q63 -140 151 -278h186q-62 105 -108 216.5t-76 227t-45 235t-15 235.5q0 503 244 950h-186q-91 -143 -155 -297t-98.5 -314.5t-34.5 -322.5z" />
<glyph unicode=")" horiz-adv-x="531" d="M-29 -383h184q93 137 160 290q65 153 99.5 313t34.5 323q0 185 -37.5 349t-102.5 305q-65 142 -153 284h-185q244 -418 244 -926q0 -163 -27.5 -324.5t-81.5 -316.5t-135 -297z" />
<glyph unicode="*" horiz-adv-x="713" d="M24 1159l224 -77l-138 -191l109 -80l138 199l141 -199l111 80l-144 191l230 77l-48 134l-219 -89v246h-137v-246l-225 89z" />
<glyph unicode="," horiz-adv-x="531" d="M127 0h140q0 -70 -36 -124q-35 -55 -98 -71v-125q80 15 140.5 59t95.5 112q33 67 35 149v275h-277v-275z" />
<glyph unicode="-" horiz-adv-x="756" d="M86 445h584v217h-584v-217z" />
<glyph unicode="." horiz-adv-x="531" d="M127 0h277v275h-277v-275z" />
<glyph unicode="/" horiz-adv-x="666" d="M-62 -33h213l187 482l391 1032h-219l-180 -479z" />
<glyph unicode="0" d="M46 711q0 -139 22 -266q21 -126 75 -235q54 -108 151 -173.5t241 -65.5q143 0 239.5 65.5t150 174t74.5 234.5q21 127 21 266q0 302 -107 520.5t-378 218.5q-273 0 -381 -218.5t-108 -520.5zM278 711q0 159 23.5 279t81 191t152.5 71q139 0 199 -148q59 -147 59 -393 q0 -249 -60 -399q-59 -150 -198 -150q-95 0 -152.5 72t-81 193.5t-23.5 283.5z" />
<glyph unicode="1" d="M77 1002v182q103 0 191 23.5t147.5 76t74.5 133.5h188v-1417h-250v1002h-351z" />
<glyph unicode="2" d="M51 0h961v207h-682q14 45 48 84q35 39 80 73t128.5 89t116.5 78q144 103 228.5 216t84.5 263q0 103 -45 203.5t-148 168.5t-264 68q-151 0 -260 -71t-165 -196t-56 -284h231q4 168 59 260q54 93 181 93q132 0 186 -75t54 -175q-2 -100 -63 -177.5t-161 -147.5t-204 -142 q-307 -207 -310 -535z" />
<glyph unicode="3" d="M36 467q4 -151 60 -262t166.5 -172.5t268.5 -61.5q135 0 249 53.5t181 151.5q67 99 67 228q0 137 -67.5 232.5t-184.5 119.5v8q96 35 145 114q50 78 50 187q0 120 -63 208t-165 133q-101 44 -212 44q-106 0 -191 -36t-146 -102t-95 -154.5t-38 -190.5h232q0 77 25.5 142 t78 104t130.5 39q61 0 110 -25q50 -25 77 -70t27 -102q0 -116 -83.5 -169.5t-221.5 -53.5v-174q8 0 24.5 1t25.5 1q143 0 228 -53t85 -191q0 -77 -35 -134.5t-96.5 -88.5t-136.5 -31q-128 0 -196.5 85.5t-68.5 220.5z" />
<glyph unicode="4" d="M24 336h605v-336h215v336h180v182h-180v899h-215l-605 -856v-225zM200 518l425 625h4v-625h-429z" />
<glyph unicode="5" d="M42 399q6 -136 71 -232q66 -97 177 -146.5t249 -49.5q160 0 270 77q110 75 162.5 192.5t52.5 238.5q0 134 -53 243t-153.5 171t-237.5 62q-70 0 -141 -29.5t-113 -77.5l-5 4l70 361h560v204h-732l-150 -776h231q50 131 227 131q85 0 145.5 -43.5t91.5 -115.5 q31 -71 31 -150t-30 -148q-29 -69 -88 -111t-142 -42q-113 0 -180 62t-80 175h-233z" />
<glyph unicode="6" d="M43 713q0 -166 23.5 -298.5t80.5 -231.5t157 -155.5t249 -56.5q137 0 245 64q108 62 167 173t59 249q0 100 -30.5 187t-88 152t-141.5 101.5t-188 36.5q-94 0 -174 -43q-79 -44 -123 -127l-4 4q6 94 17 169.5t40 148.5t85 119.5t142 46.5q92 0 147.5 -52.5t61.5 -142.5 h228q-6 115 -65 205t-154 139t-205 49q-185 0 -304 -108.5t-172 -276.5t-53 -352zM293 457q0 118 67 204q66 87 185 87q79 0 135.5 -41t86.5 -109q28 -67 28 -141q0 -120 -67 -207q-66 -88 -183 -88q-119 0 -185.5 87t-66.5 208z" />
<glyph unicode="7" d="M43 1213h734q-150 -169 -267 -365.5t-190.5 -413.5t-87.5 -434h250q14 188 55 357q42 169 109.5 318.5t157.5 285.5q91 135 204 264v192h-965v-204z" />
<glyph unicode="8" d="M37 416q0 -136 64 -237t177 -154.5t257 -53.5q143 0 255 54t175 154q63 101 63 237q0 134 -67.5 224t-188.5 124v4q95 36 147 111t52 178q0 123 -51.5 211.5t-149.5 135t-235 46.5q-139 0 -237 -46.5t-149 -134.5q-50 -88 -50 -212q0 -104 50 -179q51 -75 144 -110v-4 q-119 -34 -187.5 -124t-68.5 -224zM266 416q0 116 79.5 181t187.5 65q67 0 128.5 -28.5t99.5 -85t38 -132.5q0 -121 -74 -192q-73 -70 -190 -70q-120 0 -194 70q-75 71 -75 192zM314 1047q0 103 61 160q62 57 160 57q94 0 157 -58q64 -57 64 -159q0 -66 -31.5 -112.5 t-81.5 -70.5t-108 -24q-90 0 -155.5 55t-65.5 152z" />
<glyph unicode="9" d="M43 963q0 -143 55 -251.5t156 -168.5q100 -59 232 -59q209 0 307 170l2 -5q-10 -129 -32.5 -231t-84.5 -179t-176 -77q-87 0 -141.5 53.5t-63.5 141.5h-231q5 -86 40 -156t95 -122.5t135.5 -80t157.5 -27.5q185 0 304.5 107.5t172.5 275.5t53 353q0 167 -23 299.5 t-78 232t-153 155.5t-243 56q-150 0 -259.5 -64t-167 -175.5t-57.5 -247.5zM272 959q0 75 28 142.5t83.5 109t134.5 41.5q80 0 137 -41.5t85 -108.5t28 -143q0 -75 -28.5 -142.5t-85.5 -109.5q-57 -41 -136 -41q-77 0 -133 41t-84.5 108.5t-28.5 143.5z" />
<glyph unicode=":" horiz-adv-x="531" d="M127 0h277v275h-277v-275zM127 748h277v278h-277v-278z" />
<glyph unicode=";" horiz-adv-x="531" d="M127 0h140q0 -70 -36 -124q-35 -55 -98 -71v-125q80 15 140.5 59t95.5 112q33 67 35 149v275h-277v-275zM127 748h277v278h-277v-278z" />
<glyph unicode="&#x3c;" horiz-adv-x="1164" d="M69 441l1025 -458v208l-752 319l752 326v207l-1025 -461v-141z" />
<glyph unicode="&#x3e;" horiz-adv-x="1164" d="M69 -17l1025 458v141l-1025 461v-207l755 -326l-755 -319v-208z" />
<glyph unicode="?" d="M70 985h231q0 142 61.5 225t182.5 83q43 0 88 -25q46 -25 77 -77q32 -53 32 -130q0 -62 -20 -105q-21 -42 -47 -67q-26 -24 -99 -86q-55 -49 -87.5 -98t-48.5 -123.5t-16 -190.5h215q0 92 21.5 152t57 99.5t97.5 88.5q66 61 97 96t55 95t24 147q0 129 -57 222t-158 141 q-100 49 -223 49q-108 0 -197 -35q-89 -34 -154 -100q-64 -65 -98 -157t-34 -204zM391 0h271v250h-271v-250z" />
<glyph unicode="@" horiz-adv-x="1563" d="M74 748q0 -169 57 -313q58 -144 161.5 -249t240 -162t291.5 -57q120 0 234.5 40t209 114t160.5 176h-142q-81 -93 -201 -145q-121 -51 -253 -51q-168 0 -305 78q-136 77 -214 223q-77 145 -77 338q0 167 73.5 307t206.5 221.5t299 81.5q148 0 271 -60q122 -59 193 -170 t71 -255q0 -119 -39 -219.5t-99.5 -159t-121.5 -58.5q-39 0 -39 54q0 43 14 79l148 541h-144l-32 -121q-70 148 -226 148q-125 0 -226 -76q-100 -76 -156 -197.5t-56 -249.5q0 -85 38 -159q38 -73 105 -117q67 -43 150 -43q59 0 119 32q61 33 104 81h4q3 -56 37.5 -84.5 t81.5 -28.5q65 0 146.5 38t156.5 114.5t122.5 190.5t47.5 259q0 127 -53.5 236.5t-147 189t-215 123t-254.5 43.5q-198 0 -369 -98q-171 -97 -272 -266q-100 -169 -100 -369zM543 623q0 79 35 162q36 83 99 138q64 54 142 54q64 0 112 -54t48 -122q0 -77 -37 -162.5 t-100.5 -141.5t-138.5 -56q-71 0 -116 50q-44 51 -44 132z" />
<glyph unicode="A" horiz-adv-x="1295" d="M-34 0l548 1450h271l548 -1450h-272l-127 381h-577l-134 -381h-257zM428 574h434l-215 622z" />
<glyph unicode="B" horiz-adv-x="1381" d="M137 0v1450h695q129 0 225.5 -40.5t148.5 -123t52 -200.5q0 -107 -53 -185q-28 -42 -62.5 -69.5t-62.5 -41.5l-29 -14q132 -30 202 -127q68 -97 68 -249q0 -116 -56 -206.5t-174 -142t-296 -51.5h-658zM383 207h449q74 0 128 27t82 79t28 123q0 104 -63 163t-175 59h-449 v-451zM383 840h412q93 0 153 54t60 149q0 106 -52.5 151t-160.5 45h-412v-399z" />
<glyph unicode="C" horiz-adv-x="1432" d="M65 719q0 -153 47.5 -290t138.5 -241.5t219.5 -162.5t285.5 -58q127 0 236.5 42t190.5 119q81 78 128 185q47 108 53 236h-241q-11 -106 -56.5 -192.5t-125 -136.5t-185.5 -50q-142 0 -242.5 78t-151.5 205t-51 268q0 143 51 270.5t151.5 206t242.5 78.5q146 0 232 -77.5 t126 -213.5h246q-13 153 -96 265.5t-216 171.5t-292 59q-158 0 -286 -59t-219 -164q-90 -105 -138 -243.5t-48 -295.5z" />
<glyph unicode="D" horiz-adv-x="1432" d="M145 0v1450h593q160 0 280.5 -55t198.5 -155q77 -99 114 -231t37 -290q0 -153 -37 -283q-37 -129 -114 -227t-198 -153.5t-281 -55.5h-593zM391 207h252q188 0 293.5 66t146.5 179q39 112 39 267q0 161 -39.5 275t-146.5 180q-106 65 -293 65h-252v-1032z" />
<glyph unicode="E" horiz-adv-x="1252" d="M150 0v1450h1030v-223h-784v-379h727v-207h-727v-424h796v-217h-1042z" />
<glyph unicode="F" horiz-adv-x="1164" d="M141 0v1450h990v-223h-744v-379h654v-207h-654v-641h-246z" />
<glyph unicode="G" horiz-adv-x="1477" d="M62 719q0 -153 47 -290t137.5 -241.5t219 -162.5t284.5 -58q92 0 164 19t136 63q65 44 134 121l35 -170h162v764h-609v-199h381q-2 -120 -49 -210q-47 -89 -137.5 -137t-216.5 -48q-140 0 -239.5 78t-149.5 204.5t-50 268.5q0 107 28 205t83.5 178.5t138.5 126t189 45.5 q93 0 173.5 -33.5t133.5 -99.5t66 -158h241q-12 121 -65 215t-136.5 156t-189.5 93.5t-223 31.5q-157 0 -285 -59t-218 -164t-138 -244q-47 -138 -47 -295z" />
<glyph unicode="H" horiz-adv-x="1432" d="M137 0v1450h250v-577h654v577h254v-1450h-254v654h-654v-654h-250z" />
<glyph unicode="I" horiz-adv-x="531" d="M141 0v1450h246v-1450h-246z" />
<glyph unicode="J" d="M20 432q0 -137 45.5 -241.5t142.5 -164t245 -59.5q190 0 292.5 68t137.5 176q35 109 35 256v983h-248v-997q0 -144 -43 -213.5t-158 -69.5q-108 0 -151 66.5t-43 195.5v76h-255v-76z" />
<glyph unicode="K" horiz-adv-x="1342" d="M137 0v1450h246v-661l641 661h309l-569 -581l608 -869h-315l-465 690l-209 -202v-488h-246z" />
<glyph unicode="L" horiz-adv-x="1118" d="M137 0v1450h246v-1233h735v-217h-981z" />
<glyph unicode="M" horiz-adv-x="1741" d="M129 0v1450h353l393 -1138l391 1138h350v-1450h-240v1118l-401 -1118h-207l-403 1116v-1116h-236z" />
<glyph unicode="N" horiz-adv-x="1432" d="M133 0v1450h263l659 -1069v1069h242v-1450h-264l-660 1061v-1061h-240z" />
<glyph unicode="O" horiz-adv-x="1518" d="M69 719q0 -153 47.5 -290t138.5 -241.5t220 -162.5t285 -58t285 58.5t219 161.5q89 104 136.5 240t47.5 292q0 159 -47.5 297t-137 242.5t-218 163.5t-285.5 59t-285.5 -59t-219.5 -164q-90 -105 -138 -243.5t-48 -295.5zM315 721q0 105 29 205t85 179t140 125t191 46 q106 0 188 -45.5t137 -125.5q54 -79 81.5 -178.5t27.5 -205.5q0 -104 -27 -203q-28 -98 -83 -178q-55 -79 -137 -124.5t-187 -45.5q-141 0 -242 78t-152 205t-51 268z" />
<glyph unicode="P" horiz-adv-x="1295" d="M133 0v1450h631q188 0 297.5 -70.5t150 -172.5t40.5 -209q0 -106 -40.5 -206.5t-149.5 -169.5t-297 -69h-386v-553h-246zM379 764h371q100 0 175 56.5t75 181.5q0 237 -244 237h-377v-475z" />
<glyph unicode="Q" horiz-adv-x="1518" d="M69 719q0 -153 47.5 -290t138.5 -241.5t220 -162.5t285 -58q180 0 338 84l207 -180l123 133l-189 162q103 99 156 248.5t53 304.5q0 159 -47.5 297t-137 242.5t-218 163.5t-285.5 59t-285.5 -59t-219.5 -164q-90 -105 -138 -243.5t-48 -295.5zM315 721q0 105 29 205 t85 179t140 125t191 46q138 0 237 -79t148 -207.5t49 -270.5q0 -249 -129 -399l-172 155l-117 -143l142 -125q-77 -37 -158 -37q-141 0 -242 78t-152 205t-51 268z" />
<glyph unicode="R" horiz-adv-x="1381" d="M137 0v1450h682q232 0 354 -103t122 -292q0 -176 -79 -257q-43 -44 -97 -78t-64 -34q87 -11 151 -80q65 -70 65 -225v-8q0 -294 79 -373h-273q-36 60 -36 211q0 141 -24 224t-85.5 123t-175.5 40h-373v-598h-246zM383 789h416q118 0 182 59t64 170q0 128 -67 174.5 t-183 46.5h-412v-450z" />
<glyph unicode="S" horiz-adv-x="1295" d="M57 484q4 -173 84.5 -289.5t214.5 -172t302 -55.5q151 0 281 47.5t209 148.5t79 253q0 77 -30 151.5t-92 133t-151 88.5q-38 11 -223 59q-184 47 -193 51q-174 45 -174 187q0 99 81 144.5t186 45.5q89 0 156.5 -26.5t108 -83.5t46.5 -148h246q0 147 -72.5 251.5 t-197.5 158t-279 53.5q-134 0 -254 -48q-120 -47 -193 -143.5t-73 -234.5q0 -141 70.5 -222.5t168.5 -117.5q96 -36 263 -77t237 -73q121 -36 121 -178q0 -55 -32 -105q-32 -49 -100.5 -80.5t-172.5 -31.5q-161 0 -260.5 78t-99.5 236h-257z" />
<glyph unicode="T" horiz-adv-x="1164" d="M4 1227v223h1160v-223h-457v-1227h-247l-1 1227h-455z" />
<glyph unicode="U" horiz-adv-x="1432" d="M129 518q0 -180 71.5 -304t203 -185.5t309.5 -61.5t311.5 61.5t206.5 186.5q74 124 74 303v932h-254v-844q0 -130 -19 -216.5t-93 -146.5t-226 -60q-117 0 -185.5 35.5t-101.5 96.5q-32 60 -40 127q-9 68 -9 164v844h-248v-932z" />
<glyph unicode="V" horiz-adv-x="1204" d="M-17 1450h257l369 -1149l362 1149h256l-489 -1450h-279z" />
<glyph unicode="W" horiz-adv-x="1878" d="M3 1450h255l264 -1110l289 1110h254l289 -1110l266 1110h254l-397 -1450h-254l-289 1110l-295 -1110h-260z" />
<glyph unicode="X" horiz-adv-x="1295" d="M-8 0h287l360 549l357 -549h305l-506 748l476 702h-284l-340 -512l-325 512h-297l473 -702z" />
<glyph unicode="Y" horiz-adv-x="1295" d="M-17 1450l539 -885v-565h250v565l537 885h-281l-374 -649l-379 649h-292z" />
<glyph unicode="Z" horiz-adv-x="1252" d="M41 0v207l834 1020h-768v223h1090v-198l-836 -1035h854v-217h-1174z" />
<glyph unicode="[" horiz-adv-x="576" d="M137 -383h443v180h-227v469v1035h227v180h-443v-832v-1032z" />
<glyph unicode="\" horiz-adv-x="666" d="M-62 1481l181 -479l391 -1035h219l-184 482l-393 1032h-214z" />
<glyph unicode="]" horiz-adv-x="576" d="M-8 -203v-180h453v832v1032h-453v-180h232v-469v-1035h-232z" />
<glyph unicode="_" horiz-adv-x="979" d="M-13 -150v-100h1004v100h-1004z" />
<glyph unicode="`" horiz-adv-x="445" d="M-73 1481l278 -289h168l-184 289h-262z" />
<glyph unicode="a" d="M41 279q0 -101 50 -170t132.5 -102.5t180.5 -33.5q101 0 197 35q96 33 155 93q19 -128 174 -128q77 0 143 27v158q-28 -4 -41 -4q-69 3 -69 76v542q0 154 -122 228q-121 73 -292 73q-196 0 -328.5 -80t-146.5 -270h231q18 168 230 168q215 0 215 -143q0 -59 -39 -84 q-38 -25 -108 -35t-162 -23q-127 -18 -208.5 -45t-136.5 -94t-55 -188zM270 291q0 102 70 134t208 50q139 17 185 47v-169q0 -99 -82 -149t-174 -50q-77 0 -142 32q-65 33 -65 105z" />
<glyph unicode="b" horiz-adv-x="1204" d="M118 0v1450h228l4 -538q45 74 131 117.5t177 43.5q159 0 268.5 -73t164 -199.5t54.5 -282.5q0 -147 -49 -272q-50 -124 -151 -199.5t-246 -75.5q-115 0 -190 24t-112 56.5t-49 59t-14 31.5v-142h-216zM331 522q0 -95 35 -180t103 -136.5t162 -51.5q98 0 162 52t92 135 q29 83 29 181q0 97 -32.5 182t-96.5 136t-154 51q-95 0 -162 -51q-69 -52 -103.5 -137t-34.5 -181z" />
<glyph unicode="c" d="M42 510q0 -154 59.5 -276.5t174.5 -192.5t273 -70q199 0 322 110q122 108 153 310h-229q-9 -73 -42 -127t-85 -82t-119 -28q-91 0 -155 50q-65 51 -98 133.5t-33 176.5q0 97 35 184q33 87 99.5 140t157.5 53q101 0 165 -49q64 -51 75 -143h229q-14 184 -144.5 279 t-324.5 95q-165 0 -280.5 -73t-174 -201t-58.5 -289z" />
<glyph unicode="d" horiz-adv-x="1204" d="M57 531q0 136 38 240q39 103 103 170q65 67 145.5 99.5t166.5 32.5q110 0 204 -40q54 -24 83.5 -49.5t44.5 -48.5t16 -23v538h232v-1450h-222l-1 142q-42 -86 -129 -128.5t-193 -42.5q-158 0 -268 73q-109 71 -164.5 198.5t-55.5 288.5zM291 510q0 -147 72.5 -251.5 t212.5 -104.5q92 0 159 52.5t100.5 138.5t33.5 182q0 95 -33 179t-99 135q-65 50 -157 50q-150 0 -219.5 -109t-69.5 -272z" />
<glyph unicode="e" d="M43 522q0 -161 60 -286t175.5 -195t274.5 -70q174 0 303 96q130 94 169 261h-218q-58 -174 -254 -174q-91 0 -154 42q-63 43 -94 114q-30 71 -30 155h762q4 27 4 76q0 144 -61.5 266t-174.5 194t-260 72q-149 0 -264 -74.5t-176.5 -200.5t-61.5 -276zM275 618 q6 118 80 195.5t190 77.5q114 0 185 -80q72 -79 78 -193h-533z" />
<glyph unicode="f" horiz-adv-x="576" d="M-8 877h172v-877h227l1 877h197l-1 170h-196v109q0 106 133 106q43 0 88 -10v178q-51 20 -160 20q-134 0 -211 -65q-78 -67 -78 -248v-90h-172v-170z" />
<glyph unicode="g" horiz-adv-x="1164" d="M52 549q0 143 59 263q57 120 166 191q107 70 250 70q104 0 185 -42q38 -19 65 -46.5t45 -54.5l18 -27v144h225v-996q0 -117 -33 -203.5t-99 -144.5q-65 -58 -160 -86.5t-218 -28.5q-110 0 -212 31.5t-171 103.5q-68 72 -79 185h229q20 -87 83 -118q64 -32 163 -32 q272 0 272 267l-4 158q-47 -85 -131.5 -134t-182.5 -49q-158 0 -263.5 73t-156 197.5t-50.5 278.5zM280 535q0 -92 31.5 -172.5t94.5 -130t149 -49.5q92 0 157 50t98.5 132.5t33.5 173.5t-33 172t-99 130.5t-157 49.5q-86 0 -148 -50q-64 -51 -95 -133q-32 -81 -32 -173z " />
<glyph unicode="h" horiz-adv-x="1118" d="M107 0v1450h227l4 -542q41 74 124.5 119.5t184.5 45.5q172 0 270.5 -90.5t98.5 -265.5v-717h-227v658q-3 123 -54 178t-155 55q-109 0 -177.5 -77.5t-68.5 -194.5v-619h-227z" />
<glyph unicode="i" horiz-adv-x="445" d="M106 0v1046h228v-1046h-228zM106 1227v223h228v-223h-228z" />
<glyph unicode="j" horiz-adv-x="445" d="M-62 -221q54 -9 75 -9q60 0 77 33t17 120v1123h227v-1138q0 -160 -69 -240t-228 -80q-42 0 -99 8v183zM106 1227v223h228v-223h-228z" />
<glyph unicode="k" d="M123 0v1450h227v-823l415 420h280l-397 -385l434 -662h-279l-317 508l-136 -135v-373h-227z" />
<glyph unicode="l" horiz-adv-x="445" d="M106 0v1450h228v-1450h-228z" />
<glyph unicode="m" horiz-adv-x="1694" d="M99 0v1047h215l4 -148q51 79 146 126.5t194 47.5q92 0 164.5 -43t107.5 -131q116 174 322 174q172 0 262 -83.5t90 -270.5v-719h-232v615q0 96 -11.5 153.5t-52 90t-124.5 32.5q-222 0 -222 -276v-615h-229v674q0 112 -41 164.5t-143 52.5q-91 0 -157.5 -72t-66.5 -196 v-623h-226z" />
<glyph unicode="n" horiz-adv-x="1118" d="M107 0v1047h215l4 -158q49 88 133.5 136t187.5 48q172 0 270.5 -90.5t98.5 -265.5v-717h-227v658q-3 123 -54 178t-155 55q-109 0 -177.5 -77.5t-68.5 -194.5v-619h-227z" />
<glyph unicode="o" horiz-adv-x="1164" d="M57 522q0 -159 63 -284q61 -126 179.5 -196.5t280.5 -70.5q163 0 283 70.5t183.5 195.5t63.5 285q0 162 -63 286.5t-183 194.5t-284 70q-163 0 -281 -70t-179 -195q-63 -125 -63 -286zM286 522q0 95 34 180t100.5 137t159.5 52q95 0 162 -52t101 -137t34 -180 q0 -94 -34 -179t-101.5 -137t-161.5 -52q-92 0 -159 52t-101 137t-34 179z" />
<glyph unicode="p" horiz-adv-x="1204" d="M118 -383v1430h216l2 -154q49 100 131 139q84 41 191 41q159 0 268.5 -73t164 -199.5t54.5 -282.5q0 -147 -49 -272q-50 -124 -151 -199.5t-246 -75.5q-107 0 -201 42q-45 19 -73.5 40.5t-45.5 40.5t-24.5 29t-8.5 10v-516h-228zM331 522q0 -95 35 -180t103 -136.5 t162 -51.5q98 0 162 52t92 135q29 83 29 181q0 97 -32.5 182t-96.5 136t-154 51q-95 0 -162 -51q-69 -52 -103.5 -137t-34.5 -181z" />
<glyph unicode="q" horiz-adv-x="1204" d="M57 518q0 155 55.5 282t165.5 200t267 73q120 0 193 -37.5t100 -75.5t33 -57v144h219v-1430h-232l-2 514q-47 -76 -145 -118q-95 -42 -201 -42q-147 0 -250 76q-102 75 -153 200q-50 125 -50 271zM291 522q0 -97 29 -180.5t93.5 -135.5t162.5 -52q93 0 160 52 q68 51 101.5 135.5t33.5 178.5q0 96 -33 181q-35 86 -102 138t-160 52q-91 0 -155.5 -51t-97.5 -136q-32 -84 -32 -182z" />
<glyph unicode="r" horiz-adv-x="666" d="M102 0v1047h212l1 -203q52 225 392 225v-221q-65 8 -94 8q-81 0 -145 -42t-101 -124q-37 -81 -37 -190l-1 -500h-227z" />
<glyph unicode="s" horiz-adv-x="1028" d="M57 336q2 -118 63 -200q59 -83 163 -123q104 -42 235 -42q118 0 223 35q106 34 174 110.5t68 195.5q0 96 -46 157t-119 93q-73 33 -171 57q-70 15 -134 29q-63 14 -107 31q-43 16 -70 42.5t-27 67.5q0 57 60 79.5t129 22.5q187 0 213 -139h240q-12 84 -51.5 146.5 t-99 101t-131.5 56t-155 17.5q-105 0 -204.5 -28t-165.5 -95t-66 -174q0 -101 45 -162.5t117 -92.5q70 -31 172 -54q58 -13 126.5 -28t111.5 -31t72.5 -43.5t33.5 -69.5q0 -141 -234 -141q-99 0 -161.5 44t-69.5 138h-234z" />
<glyph unicode="t" horiz-adv-x="629" d="M-5 877h172l1 -619q2 -72 14 -120t43 -81q30 -32 85.5 -48.5t144.5 -16.5q26 0 75 4t74 4v178q-36 -8 -98 -8q-71 0 -91 31.5t-20 114.5v561h209v170h-208v315h-228v-315h-173v-170z" />
<glyph unicode="u" horiz-adv-x="1118" d="M107 381v666h227v-643q0 -135 49 -192.5t148 -57.5q135 0 196 78q62 78 62 209v606h227v-1047h-223v145q-40 -72 -131 -125q-83 -49 -172 -49q-99 0 -173 26q-73 27 -120 78q-46 52 -68 127.5t-22 178.5z" />
<glyph unicode="v" horiz-adv-x="1028" d="M12 1047h250l269 -805l254 805h235l-373 -1047h-260z" />
<glyph unicode="w" horiz-adv-x="1518" d="M4 1047h244l207 -781l197 781h227l190 -781l213 781h232l-326 -1047h-231l-197 781l-197 -781h-237z" />
<glyph unicode="x" d="M3 0h271l253 383l266 -383h268l-396 561l355 486h-264l-225 -324l-217 324h-278l355 -498z" />
<glyph unicode="y" horiz-adv-x="1028" d="M-1 1047h255l273 -781l266 781h235l-376 -1034l-23 -69q-62 -145 -94 -204.5t-98.5 -105.5t-178.5 -46q-82 0 -156 12v193q52 -10 85 -10q138 0 181 141l23 80z" />
<glyph unicode="z" horiz-adv-x="979" d="M32 0h914v183h-625l593 702v162h-845v-182h539l-576 -703v-162z" />
<glyph unicode="{" horiz-adv-x="576" d="M-17 457q36 0 79.5 -16t76.5 -52t33 -94v-406q0 -88 43.5 -149.5t104.5 -92.5q62 -30 112 -30h181v180h-110q-71 0 -93 39.5t-22 103.5l-1 380q-4 210 -207 223v4q70 7 137.5 58t69.5 159l1 391q0 64 22 105t93 41h110v180h-181q-49 0 -111 -32q-62 -31 -105 -94 q-44 -62 -44 -151v-415q0 -55 -33 -89t-76.5 -48.5t-79.5 -14.5v-180z" />
<glyph unicode="|" horiz-adv-x="400" d="M102 -33h203v482v1032h-203v-479v-1035z" />
<glyph unicode="}" horiz-adv-x="576" d="M-34 -203v-180h183q46 0 107 30q60 31 103 93q44 62 44 149l1 418q0 55 33 89t78 47q44 14 81 14v180q-64 0 -128 39.5t-64 126.5v401q0 88 -44 151t-104 94.5t-106 31.5h-184v-180h107q115 0 115 -146v-379q0 -209 207 -229v-4q-74 -10 -140.5 -57t-66.5 -154v-392 q0 -143 -115 -143h-107z" />
<glyph unicode="~" horiz-adv-x="1164" d="M119 510l70 -170q71 139 168 139q55 0 104.5 -17.5t119.5 -52.5t116 -52t98 -17q81 0 134 44.5t116 129.5l-74 172q-41 -63 -82 -101t-94 -38q-48 0 -93 17t-115 52t-118 52.5t-100 17.5q-169 0 -250 -176z" />
<glyph unicode="&#xa1;" horiz-adv-x="531" d="M133 823h267v250h-267v-250zM142 41v-410h250v410l-66 633h-117z" />
<glyph unicode="&#xa2;" d="M47 520q0 -142 53.5 -268t160 -203.5t253.5 -77.5v-182h86v182q181 0 290 111.5t147 308.5h-230q-10 -97 -64 -159q-53 -63 -143 -78v737q79 0 133.5 -53t65.5 -139h229q-10 115 -69 200q-58 85 -153 129q-94 45 -206 45v183h-86v-183q-148 0 -254 -78t-159.5 -205 t-53.5 -270zM278 510q0 94 24 178t76.5 140t135.5 63v-737q-118 17 -176 120q-60 102 -60 236z" />
<glyph unicode="&#xa3;" d="M37 645h182q41 -72 41 -161q0 -101 -58 -193t-155 -162l105 -162q88 66 209 66q98 0 202 -37q174 -19 226 -19q182 0 301 99l-107 158q-83 -74 -190 -74q-74 0 -150 35q-75 24 -143 24q-93 0 -207 -45l-2 4q56 46 101 99q46 53 75 115t29 124q0 69 -35 129h246v136h-295 q-90 158 -90 270q0 111 64 176.5t157 65.5q258 0 272 -312h230q-1 125 -36.5 219t-101.5 156q-65 62 -159 93q-93 32 -209 32q-118 0 -228 -52.5t-177.5 -148.5t-67.5 -219q0 -69 27 -147t71 -133h-127v-136z" />
<glyph unicode="&#xa4;" d="M16 297l113 -114l111 118q56 -52 134.5 -80t162.5 -28q181 0 287 108l114 -118l109 114l-108 115q96 122 96 313q0 176 -92 277l108 119l-121 118l-119 -110q-105 88 -280 88q-172 0 -287 -92l-115 110l-113 -110l113 -127q-107 -92 -107 -273q0 -86 27.5 -168.5 t79.5 -140.5zM243 707q0 128 84.5 215.5t211.5 87.5q86 0 147 -42q62 -43 93 -111.5t31 -145.5q0 -80 -32 -150.5t-94.5 -113.5t-148.5 -43q-79 0 -146.5 40.5t-105.5 110.5q-40 69 -40 152z" />
<glyph unicode="&#xa5;" d="M-34 1450l376 -719h-197v-125h270v-139h-270v-135h271v-332h231v332h279v135h-279v139h279v125h-205l381 719h-250l-317 -649l-316 649h-253z" />
<glyph unicode="&#xa7;" d="M20 635q0 -131 92.5 -219t260.5 -174q144 -77 198 -108.5t100 -82.5q46 -53 46 -119q0 -162 -174 -162q-196 0 -209 230h-215q3 -132 60 -225q55 -93 151 -140t219 -47q107 0 198.5 39t147.5 117.5t56 187.5q0 157 -115 259q92 29 151.5 112t59.5 181q0 90 -47 160.5 t-117 119t-172 101.5q-68 35 -129 66q-60 32 -106 63q-45 32 -72 70t-27 83q0 64 51.5 109t114.5 45q83 0 133 -58q50 -57 53 -141h222q0 115 -53 201q-52 86 -145 132t-208 46q-98 0 -189.5 -42t-149 -119.5t-57.5 -178.5q0 -121 86 -207q-215 -96 -215 -299zM235 658 q0 55 35 101q35 47 87 60l334 -188q83 -51 112 -88t29 -82q0 -119 -121 -166l-365 205q-111 62 -111 158z" />
<glyph unicode="&#xa8;" horiz-adv-x="445" d="M-62 1213h226v217h-226v-217zM283 1213h227v217h-227v-217z" />
<glyph unicode="&#xa9;" horiz-adv-x="1563" d="M43 719q0 -209 95.5 -381.5t264.5 -271.5q170 -99 382 -99q146 0 279 54.5t235 155.5q103 100 161 239.5t58 302.5q0 168 -58 309.5t-160.5 242.5t-235 155.5t-279.5 54.5q-151 0 -285 -54t-238 -155q-103 -102 -161 -243.5t-58 -309.5zM205 719q0 182 76.5 326 t209.5 224q132 81 294 81q159 0 290 -81q131 -80 206 -224t75 -326q0 -179 -75 -320t-206 -220q-132 -78 -290 -78q-173 0 -305 82t-203 223q-72 142 -72 313zM379 719q0 -95 30.5 -177t87.5 -145q58 -62 137 -96.5t173 -34.5q87 0 163 37.5t127 107t67 162.5h-140 q-9 -78 -68 -128q-59 -49 -149 -49q-82 0 -142 45q-61 46 -91 119q-31 74 -31 155q0 128 68 219.5t192 91.5q86 0 146 -47t75 -127h135q-11 97 -60 166q-49 70 -126 105.5t-170 35.5q-128 -2 -224 -58.5t-148 -156.5q-52 -99 -52 -225z" />
<glyph unicode="&#xaa;" horiz-adv-x="756" d="M28 946q0 -62 35.5 -107t93.5 -68t122 -23q71 0 133 28q63 28 94 80q16 -104 121 -104q42 0 98 20v136q-38 0 -53 7q-14 8 -14 40v301q0 94 -84.5 144t-200.5 50q-128 0 -220 -53q-91 -53 -102 -170h172q3 44 42 68t92 24t91 -24.5t38 -69.5q0 -24 -24 -38.5t-51.5 -20 t-113.5 -19.5q-88 -15 -141 -31.5t-90.5 -56.5t-37.5 -113zM200 955q0 52 47.5 72.5t131.5 31.5t107 23v-88q0 -105 -172 -105q-55 0 -84.5 13t-29.5 53z" />
<glyph unicode="&#xab;" horiz-adv-x="889" d="M86 441l305 -254v209l-186 153l186 158v205l-305 -246v-225zM482 441l311 -254v209l-188 153l188 158v205l-311 -246v-225z" />
<glyph unicode="&#xac;" horiz-adv-x="1164" d="M73 615h808v-398h209v602h-1017v-204z" />
<glyph unicode="&#xad;" horiz-adv-x="756" d="M86 445h584v217h-584v-217z" />
<glyph unicode="&#xae;" horiz-adv-x="1563" d="M43 719q0 -209 95.5 -381.5t264.5 -271.5q170 -99 382 -99q146 0 279 54.5t235 155.5q103 100 161 239.5t58 302.5q0 168 -58 309.5t-160.5 242.5t-235 155.5t-279.5 54.5q-151 0 -285 -54t-238 -155q-103 -102 -161 -243.5t-58 -309.5zM205 719q0 182 76.5 326 t209.5 224q132 81 294 81q159 0 290 -81q131 -80 206 -224t75 -326q0 -179 -75 -320t-206 -220q-132 -78 -290 -78q-173 0 -305 82t-203 223q-72 142 -72 313zM498 291h137v358h129l215 -358h154l-236 367q221 28 221 231q0 125 -75 182q-75 58 -228 58h-317v-838zM635 768 v242h164q79 0 129.5 -23t50.5 -92q0 -56 -25 -83.5t-65 -35.5t-100 -8h-154z" />
<glyph unicode="&#xb1;" horiz-adv-x="1164" d="M73 0h1017v207h-1017v-207zM73 561h404v-250h205v250h408v211h-408v254h-205v-254h-404v-211z" />
<glyph unicode="&#xb2;" horiz-adv-x="713" d="M36 549h634v146h-431q15 38 50 69.5t85 62.5q51 31 111 68q98 66 152 132q53 67 53 157q0 133 -88 199.5t-225 66.5q-102 0 -176 -40.5t-114.5 -116.5t-40.5 -177h172q4 82 40 137q37 56 111 56q63 0 104 -34t41 -95q-2 -62 -42 -108t-106 -88.5t-131 -84.5 q-193 -125 -199 -350z" />
<glyph unicode="&#xb3;" horiz-adv-x="713" d="M28 848q4 -150 87 -231q81 -82 242 -82q92 0 167 32.5t118.5 96t43.5 147.5q0 85 -42.5 143t-121.5 72v4q130 39 130 183q0 119 -87.5 178t-211.5 59q-139 0 -221.5 -79.5t-88.5 -219.5h162q0 67 42 112.5t106 45.5q53 0 95 -26.5t42 -78.5q0 -65 -59 -96t-140 -31v-114 q108 0 172 -28q64 -27 64 -116q0 -66 -48 -103.5t-122 -37.5q-82 0 -125 47.5t-43 122.5h-161z" />
<glyph unicode="&#xb4;" horiz-adv-x="445" d="M65 1192h170l287 289h-274z" />
<glyph unicode="&#xb5;" horiz-adv-x="1118" d="M107 -383h227v426q59 -74 160 -74q57 0 116 24q58 25 105.5 65t73.5 88h4v-146h223v13v1034h-227v-606q0 -131 -62 -209q-61 -78 -196 -78q-99 0 -148 57.5t-49 192.5v643h-227v-398v-1032z" />
<glyph unicode="&#xb6;" horiz-adv-x="1164" d="M41 1065q0 -106 53.5 -189t152 -130t226.5 -47v-1023h162v607v1032h232v-604v-1035h161v732v1042h-518q-144 0 -249.5 -40t-162.5 -126t-57 -219z" />
<glyph unicode="&#xb7;" horiz-adv-x="531" d="M119 615q0 -71 43.5 -109.5t103.5 -38.5q62 0 106 38.5t44 109.5q0 68 -44 105q-43 36 -106 36q-60 0 -103 -37q-44 -36 -44 -104z" />
<glyph unicode="&#xb8;" horiz-adv-x="445" d="M-4 -404q74 -45 193 -45q107 0 183.5 45t76.5 138q0 43 -27 79t-69.5 57t-83.5 21q-34 0 -60 -14v4l93 119h-97l-135 -178l49 -36q34 17 76 17q92 0 92 -78t-100 -78q-50 0 -154 29z" />
<glyph unicode="&#xb9;" horiz-adv-x="713" d="M66 1168h243v-619h177v877h-140q-16 -71 -93 -104.5t-187 -33.5v-120z" />
<glyph unicode="&#xba;" horiz-adv-x="756" d="M24 1102q0 -160 94 -255q92 -95 261 -95q116 0 197 43t122 122q40 80 40 185q0 104 -41 183q-40 79 -121 122t-197 43q-168 0 -261.5 -95t-93.5 -253zM198 1100q0 87 48 151t133 64q89 0 137 -64.5t48 -148.5q-7 -92 -51 -152q-43 -61 -134 -61q-86 0 -133.5 62.5 t-47.5 148.5z" />
<glyph unicode="&#xbb;" horiz-adv-x="889" d="M106 187l305 254v225l-305 246v-205l187 -158l-187 -153v-209zM502 187l309 254v225l-309 246v-205l188 -158l-188 -153v-209z" />
<glyph unicode="&#xbc;" horiz-adv-x="1655" d="M61 1168h248v-619h172l1 877h-140q-17 -71 -94 -104.5t-187 -33.5v-120zM274 -47h162l262 479l576 1039h-156l-270 -486zM867 195h395v-195h174v195h94v153h-94v521h-197l-372 -508v-166zM1020 348l238 322h4v-322h-242z" />
<glyph unicode="&#xbd;" horiz-adv-x="1655" d="M61 1168h244v-619h177v877h-140q-17 -71 -94 -104.5t-187 -33.5v-120zM266 -47h162l262 479l576 1039h-156l-270 -486zM942 0h630v142h-427q13 36 48 69q36 33 90 68q55 35 104 65q98 62 153.5 128.5t55.5 158.5q0 132 -88 202t-226 70q-160 0 -244 -90q-83 -90 -83 -252 h172q8 203 147 203q61 0 101 -37q41 -37 41 -100q0 -46 -19 -81.5t-52.5 -64t-92.5 -64.5t-72 -44q-112 -69 -175 -152t-63 -221z" />
<glyph unicode="&#xbe;" horiz-adv-x="1655" d="M24 848q3 -149 86 -231t243 -82q92 0 167 32.5t118.5 96t43.5 147.5q0 85 -42.5 143t-121.5 72v4q129 39 129 183q0 80 -42 134t-109.5 78.5t-145.5 24.5q-139 0 -222 -79.5t-87 -219.5h159q0 67 42.5 112.5t107.5 45.5q52 0 94 -26.5t42 -78.5q0 -65 -59 -96t-141 -31 v-114q109 0 173 -28q63 -27 63 -116q0 -66 -47.5 -103.5t-121.5 -37.5q-82 0 -125 47.5t-43 122.5h-161zM383 -47h159l269 479l570 1039h-158l-262 -486zM946 195h387v-195h177v195h94v153h-94v521h-201l-363 -508v-166zM1098 348l231 322h5l-1 -322h-235z" />
<glyph unicode="&#xbf;" d="M70 -4q0 -123 58 -214t158.5 -138.5t223.5 -47.5q109 0 199 35t153 99q64 65 96.5 152.5t32.5 193.5h-227q0 -134 -61 -210.5t-181 -76.5q-38 0 -85 23q-46 23 -79 71t-33 117q0 65 21 108q20 44 45 69t94 85q59 49 93 98t49.5 122.5t15.5 191.5h-215q0 -131 -41.5 -198 t-138.5 -148q-87 -69 -133 -138q-45 -69 -45 -194zM395 823h271v250h-271v-250z" />
<glyph unicode="&#xc0;" horiz-adv-x="1295" d="M-34 0h256l135 381h577l127 -381h272l-157 408l-391 1042h-271l-158 -416zM350 1882l285 -295h163l-177 295h-271zM428 574l215 622h4h5l210 -622h-434z" />
<glyph unicode="&#xc1;" horiz-adv-x="1295" d="M-34 0h256l135 381h577l127 -381h272l-157 408l-391 1042h-271l-158 -416zM428 574l215 622h4h5l210 -622h-434zM497 1560h165l288 290h-272z" />
<glyph unicode="&#xc2;" horiz-adv-x="1295" d="M-34 0h256l135 381h577l127 -381h272l-157 408l-391 1042h-271l-158 -416zM321 1587h185l141 183l146 -183h182l-215 295h-221zM428 574l215 622h4h5l210 -622h-434z" />
<glyph unicode="&#xc3;" horiz-adv-x="1295" d="M-34 0h256l135 381h577l127 -381h272l-157 408l-391 1042h-271l-158 -416zM292 1608h115q0 28 27 54t60 26q32 0 64.5 -9.5t82 -28t78 -26.5t62.5 -8q176 0 223 229h-115q-27 -86 -94 -86q-44 0 -129 39q-71 29 -133 29q-59 0 -109.5 -24.5t-85 -74.5t-46.5 -120z M428 574l215 622h4h5l210 -622h-434z" />
<glyph unicode="&#xc4;" horiz-adv-x="1295" d="M-33 0h256l134 381h577l127 -381h272l-157 408l-391 1042h-271l-157 -416zM361 1616h231v217h-231v-217zM428 574l215 622h4h5l210 -622h-434zM707 1616h231v217h-231v-217z" />
<glyph unicode="&#xc5;" horiz-adv-x="1295" d="M-34 0h256l135 381h577l127 -381h272l-157 408l-391 1042h-271l-158 -416zM428 574l215 622h4h5l210 -622h-434zM448 1721q0 -85 53.5 -146.5t150.5 -61.5q92 0 144 62t52 146q0 52 -23 100q-22 48 -67 77t-106 29q-65 0 -111 -29t-69 -77q-24 -47 -24 -100zM526 1721 q0 55 38 87q36 31 88 31q50 0 85 -31t35 -87t-36.5 -87.5t-83.5 -31.5q-51 0 -88 31q-38 32 -38 88z" />
<glyph unicode="&#xc6;" horiz-adv-x="1917" d="M-17 0h279l174 369h474v-369h952v217h-709v424h654v207h-654v379h699v223h-136h-1021l-205 -416zM527 561l313 666h70v-666h-383z" />
<glyph unicode="&#xc7;" horiz-adv-x="1432" d="M65 719q0 157 48 295.5t138 243.5q91 105 219 164t286 59q159 0 292 -59t216 -171.5t96 -265.5h-246q-40 136 -126 213.5t-232 77.5q-142 0 -242.5 -78.5t-151.5 -206t-51 -270.5q0 -141 51 -268t151.5 -205t242.5 -78q106 0 185.5 50t125 136.5t56.5 192.5h241 q-6 -128 -53 -236q-47 -107 -128 -185q-81 -77 -190 -119q-104 -40 -223 -42l-64 -86q40 10 60 10q67 0 123.5 -46t56.5 -111q0 -93 -76 -138t-184 -45q-118 0 -193 45l38 80q90 -31 151 -31q103 0 103 80t-93 80q-41 0 -79 -19l-50 36l114 149q-111 11 -206 54 q-129 58 -220 162.5t-138.5 241.5t-47.5 290z" />
<glyph unicode="&#xc8;" horiz-adv-x="1252" d="M149 0h19h1024v217h-797v424h728v207h-728v379h785v223h-8h-1023v-416v-1034zM329 1882l288 -295h164l-181 295h-271z" />
<glyph unicode="&#xc9;" horiz-adv-x="1252" d="M149 0h19h1024v217h-797v424h728v207h-728v379h785v223h-8h-1023v-416v-1034zM477 1587h166l287 295h-272z" />
<glyph unicode="&#xca;" horiz-adv-x="1252" d="M149 0h19h1024v217h-797v424h728v207h-728v379h785v223h-8h-1023v-416v-1034zM301 1587h184l144 183l143 -183h185l-219 295h-220z" />
<glyph unicode="&#xcb;" horiz-adv-x="1252" d="M150 0h18h1024v217h-796v424h727v207h-727v379h784v223h-8h-1022v-416v-1034zM342 1616h225v217h-225v-217zM686 1616h228v217h-228v-217z" />
<glyph unicode="&#xcc;" horiz-adv-x="531" d="M-33 1882l287 -295h162l-180 295h-269zM142 0h246l-1 408v1042h-245v-416v-1034z" />
<glyph unicode="&#xcd;" horiz-adv-x="531" d="M119 1579h164l280 291h-266zM142 0h245v408v1042h-245v-416v-1034z" />
<glyph unicode="&#xce;" horiz-adv-x="531" d="M-54 1587h180l140 183l142 -183h188l-219 295h-221zM141 0h246v408v1042h-246v-416v-1034z" />
<glyph unicode="&#xcf;" horiz-adv-x="531" d="M-17 1616h226v217h-226v-217zM142 0h245v408v1042h-245v-416v-1034zM326 1616h227v217h-227v-217z" />
<glyph unicode="&#xd0;" horiz-adv-x="1432" d="M8 641h138v-641h592q160 0 281 55.5t198 153.5t114 227q37 130 37 283q0 158 -37 290t-114 231q-78 100 -198.5 155t-280.5 55h-592v-602h-138v-207zM391 207v434h398v207h-398v391h252q187 0 293 -65q107 -66 147 -180t40 -275q0 -155 -40.5 -267.5t-146 -178.5 t-293.5 -66h-252z" />
<glyph unicode="&#xd1;" horiz-adv-x="1432" d="M133 0v1450h263l659 -1069v1069h242v-1450h-264l-660 1061v-1061h-240zM361 1608q17 107 81 163q65 56 156 56q62 0 135 -29q86 -41 132 -41q71 0 96 88h109q-19 -101 -73 -165t-149 -64q-33 0 -63.5 8.5t-79.5 26.5q-50 19 -81.5 28t-64.5 9t-57.5 -26t-24.5 -54h-116z " />
<glyph unicode="&#xd2;" horiz-adv-x="1518" d="M69 719q0 -153 47.5 -290t138.5 -241.5t220 -162.5t285 -58t285 58.5t219 161.5q89 104 136.5 240t47.5 292q0 159 -47.5 297t-137 242.5t-218 163.5t-285.5 59t-285 -58q-129 -60 -220 -165q-90 -105 -138 -243.5t-48 -295.5zM315 721q0 105 29 205t85 179t140 125 t191 46q106 0 188 -45.5t137 -125.5q54 -79 81.5 -178.5t27.5 -205.5q0 -104 -27 -203q-28 -98 -83 -178q-55 -79 -137 -124.5t-187 -45.5q-141 0 -242 78t-152 205t-51 268zM459 1882l283 -295h168l-185 295h-266z" />
<glyph unicode="&#xd3;" horiz-adv-x="1518" d="M69 719q0 -153 47.5 -290t138.5 -241.5t220 -162.5t285 -58t285 58.5t219 161.5q89 104 136.5 240t47.5 292q0 159 -47.5 297t-137 242.5t-218 163.5t-285.5 59t-285 -58q-129 -60 -220 -165q-90 -105 -138 -243.5t-48 -295.5zM315 721q0 105 29 205t85 179t140 125 t191 46q106 0 188 -45.5t137 -125.5q54 -79 81.5 -178.5t27.5 -205.5q0 -104 -27 -203q-28 -98 -83 -178q-55 -79 -137 -124.5t-187 -45.5q-141 0 -242 78t-152 205t-51 268zM608 1561h168l281 289h-268z" />
<glyph unicode="&#xd4;" horiz-adv-x="1518" d="M69 719q0 -153 47.5 -290t138.5 -241.5t220 -162.5t285 -58t285 58.5t219 161.5q89 104 136.5 240t47.5 292q0 159 -47.5 297t-137 242.5t-218 163.5t-285.5 59t-285.5 -59t-219.5 -164q-90 -105 -138 -243.5t-48 -295.5zM315 721q0 105 29 205t85 179t140 125t191 46 q106 0 188 -45.5t137 -125.5q54 -79 81.5 -178.5t27.5 -205.5q0 -104 -27 -203q-28 -98 -83 -178q-55 -79 -137 -124.5t-187 -45.5q-141 0 -242 78t-152 205t-51 268zM436 1587h184l140 183l137 -183h193l-219 295h-224z" />
<glyph unicode="&#xd5;" horiz-adv-x="1518" d="M69 719q0 -153 47.5 -290t138.5 -241.5t220 -162.5t285 -58t285 58.5t219 161.5q89 104 136.5 240t47.5 292q0 159 -47.5 297t-137 242.5t-218 163.5t-285.5 59t-285.5 -59t-219.5 -164q-90 -105 -138 -243.5t-48 -295.5zM315 721q0 105 29 205t85 179t140 125t191 46 q106 0 188 -45.5t137 -125.5q54 -79 81.5 -178.5t27.5 -205.5q0 -104 -27 -203q-28 -98 -83 -178q-55 -79 -137 -124.5t-187 -45.5q-141 0 -242 78t-152 205t-51 268zM403 1608h115q0 28 25.5 54t60.5 26q32 0 64 -9t83 -28.5t78 -26.5q28 -8 60 -8q97 0 154.5 64.5 t70.5 164.5h-114q-23 -92 -103 -92q-32 0 -62 10t-76 30t-77 30t-65 10q-87 0 -141 -68t-73 -157z" />
<glyph unicode="&#xd6;" horiz-adv-x="1518" d="M70 719q0 -153 47 -290t138 -241.5t220 -162.5t285 -58t285 58.5t219 161.5q89 104 136.5 240t47.5 292q0 159 -47.5 297t-137 242.5t-218 163.5t-285.5 59t-285 -58q-129 -60 -220 -165q-90 -105 -138 -243q-47 -139 -47 -296zM316 721q0 105 28 205q29 100 85 179 t140 125t191 46q106 0 188 -45.5t137 -125.5q54 -79 81.5 -178.5t27.5 -205.5q0 -104 -27 -203q-28 -98 -83 -178q-55 -79 -137 -124.5t-187 -45.5q-141 0 -242 78t-151.5 205t-50.5 268zM473 1616h229v217h-229v-217zM819 1616h228v217h-228v-217z" />
<glyph unicode="&#xd8;" horiz-adv-x="1518" d="M71 711q0 -135 40.5 -263.5t119.5 -234.5l-158 -180l87 -74l154 170q178 -162 446 -162q157 0 285 63.5t217.5 173t135.5 247t46 284.5q0 137 -40.5 265t-121.5 231l162 182l-90 76l-150 -170q-182 162 -444 162q-160 0 -289 -63t-217.5 -172t-135.5 -248.5t-47 -286.5z M319 725q0 143 48.5 269.5t148 204t244.5 77.5q182 0 295 -129l-664 -751q-72 152 -72 329zM461 301l662 750q73 -144 73 -324q0 -142 -49 -270t-148.5 -207.5t-238.5 -79.5q-184 0 -299 131z" />
<glyph unicode="&#xd9;" horiz-adv-x="1432" d="M129 518q0 -180 71.5 -304t203 -185.5t309.5 -61.5t311.5 61.5t206.5 186.5q74 124 74 303v932h-254v-844q0 -130 -19 -216.5t-93 -146.5t-226 -60q-117 0 -185.5 35.5t-101.5 96.5q-32 60 -40 127q-9 68 -9 164v844h-248v-932zM416 1882l287 -295h164l-181 295h-270z " />
<glyph unicode="&#xda;" horiz-adv-x="1432" d="M129 518q0 -180 71.5 -304t203 -185.5t309.5 -61.5t311.5 61.5t206.5 186.5q74 124 74 303v932h-254v-844q0 -130 -19 -216.5t-93 -146.5t-226 -60q-117 0 -185.5 35.5t-101.5 96.5q-32 60 -40 127q-9 68 -9 164v844h-248v-932zM563 1561h166l288 289h-271z" />
<glyph unicode="&#xdb;" horiz-adv-x="1432" d="M129 518q0 -180 71.5 -304t203 -185.5t309.5 -61.5t311.5 61.5t206.5 186.5q74 124 74 303v932h-254v-844q0 -130 -19 -216.5t-93 -146.5t-226 -60q-117 0 -185.5 35.5t-101.5 96.5q-32 60 -40 127q-9 68 -9 164v844h-248v-932zM387 1587h185l141 183l145 -183h187 l-217 295h-219z" />
<glyph unicode="&#xdc;" horiz-adv-x="1432" d="M129 518q0 -180 71.5 -304t203 -185.5t309.5 -61.5t311.5 61.5t206.5 186.5q74 124 74 303v932h-254v-844q0 -130 -19 -216.5t-93 -146.5t-226 -60q-117 0 -185.5 35.5t-101.5 96.5q-32 60 -40 127q-9 68 -9 164v844h-248v-932zM432 1616h225v217h-225v-217zM776 1616 h228v217h-228v-217z" />
<glyph unicode="&#xdd;" horiz-adv-x="1295" d="M-17 1450l539 -885v-565h250v565l537 885h-281l-374 -649l-379 649h-292zM494 1561h168l289 289h-277z" />
<glyph unicode="&#xde;" horiz-adv-x="1295" d="M133 0h246v336h385q188 0 297.5 69t150 169.5t40.5 206.5q0 107 -40.5 207.5t-149.5 169.5t-298 69h-385v223h-246v-416v-1034zM379 542v480h377q244 0 244 -237q0 -86 -37 -140.5t-94 -78.5t-119 -24h-371z" />
<glyph unicode="&#xdf;" horiz-adv-x="1118" d="M111 0h226v1034q0 145 62.5 206t145.5 61q201 0 201 -207q0 -115 -79 -168t-198 -53v-156q141 0 241.5 -57.5t100.5 -188.5q0 -138 -52.5 -227.5t-213.5 -89.5q-55 0 -76 4v-179q74 -8 111 -8q137 0 242 64q106 62 162 174q57 111 57 252q0 83 -32.5 160t-93.5 127 q-61 51 -143 59v4q99 30 151 114t52 191q0 112 -60 195t-158 126q-98 44 -208 44q-128 0 -227.5 -51t-155 -147t-55.5 -226v-23v-1034z" />
<glyph unicode="&#xe0;" d="M41 279q0 -101 50 -170t132.5 -102.5t180.5 -33.5q101 0 197 35q96 33 155 93q19 -128 174 -128q77 0 143 27v158q-28 -4 -41 -4q-69 3 -69 76v542q0 154 -122 228q-121 73 -292 73q-196 0 -328.5 -80t-146.5 -270h231q18 168 230 168q215 0 215 -143q0 -59 -39 -84 q-38 -25 -108 -35t-162 -23q-127 -18 -208.5 -45t-136.5 -94t-55 -188zM232 1481l286 -289h168l-184 289h-270zM270 291q0 102 70 134t208 50q139 17 185 47v-169q0 -99 -82 -149t-174 -50q-77 0 -142 32q-65 33 -65 105z" />
<glyph unicode="&#xe1;" d="M41 279q0 -101 50 -170t132.5 -102.5t180.5 -33.5q101 0 197 35q96 33 155 93q19 -128 174 -128q77 0 143 27v158q-28 -4 -41 -4q-69 3 -69 76v542q0 154 -122 228q-121 73 -292 73q-196 0 -328.5 -80t-146.5 -270h231q18 168 230 168q215 0 215 -143q0 -59 -39 -84 q-38 -25 -108 -35t-162 -23q-127 -18 -208.5 -45t-136.5 -94t-55 -188zM270 291q0 102 70 134t208 50q139 17 185 47v-169q0 -99 -82 -149t-174 -50q-77 0 -142 32q-65 33 -65 105zM379 1192h170l287 289h-277z" />
<glyph unicode="&#xe2;" d="M41 279q0 -101 50 -170t132.5 -102.5t180.5 -33.5q101 0 197 35q96 33 155 93q19 -128 174 -128q77 0 143 27v158q-28 -4 -41 -4q-69 3 -69 76v542q0 154 -122 228q-121 73 -292 73q-196 0 -328.5 -80t-146.5 -270h231q18 168 230 168q215 0 215 -143q0 -59 -39 -84 q-38 -25 -108 -35t-162 -23q-127 -18 -208.5 -45t-136.5 -94t-55 -188zM209 1192h182l144 182l139 -182h188l-215 289h-223zM270 291q0 102 70 134t208 50q139 17 185 47v-169q0 -99 -82 -149t-174 -50q-77 0 -142 32q-65 33 -65 105z" />
<glyph unicode="&#xe3;" d="M41 279q0 -101 50 -170t132.5 -102.5t180.5 -33.5q101 0 197 35q96 33 155 93q19 -128 174 -128q77 0 143 27v158q-28 -4 -41 -4q-69 3 -69 76v542q0 154 -122 228q-121 73 -292 73q-196 0 -328.5 -80t-146.5 -270h231q18 168 230 168q215 0 215 -143q0 -59 -39 -84 q-38 -25 -108 -35t-162 -23q-127 -18 -208.5 -45t-136.5 -94t-55 -188zM180 1204h113q0 30 27 59q26 30 57 30q41 0 92 -20q52 -20 104 -41q52 -20 93 -20q97 0 152 67t67 171h-109q-18 -90 -102 -90q-30 0 -64 9.5t-82 26.5t-82 27.5t-59 10.5q-84 0 -138 -70t-69 -160z M270 291q0 102 70 134t208 50q139 17 185 47v-169q0 -99 -82 -149t-174 -50q-77 0 -142 32q-65 33 -65 105z" />
<glyph unicode="&#xe4;" d="M41 279q0 -101 50 -170t132.5 -102.5t180.5 -33.5q101 0 197 35q96 33 155 93q19 -128 174 -128q77 0 143 27v158q-28 -4 -41 -4q-69 3 -69 76v542q0 154 -122 228q-121 73 -292 73q-196 0 -328.5 -80t-146.5 -270h231q18 168 230 168q215 0 215 -143q0 -59 -39 -84 q-38 -25 -108 -35t-162 -23q-127 -18 -208.5 -45t-136.5 -94t-55 -188zM248 1212h229v218h-229v-218zM271 291q0 102 69 134q70 32 208 50q139 17 185 47v-169q0 -99 -82 -149t-174 -50q-77 0 -142 32q-64 33 -64 105zM596 1212h228v218h-228v-218z" />
<glyph unicode="&#xe5;" d="M41 279q0 -101 50 -170t132.5 -102.5t180.5 -33.5q101 0 197 35q96 33 155 93q19 -128 174 -128q77 0 143 27v158q-28 -4 -41 -4q-69 3 -69 76v542q0 154 -122 228q-121 73 -292 73q-196 0 -328.5 -80t-146.5 -270h231q18 168 230 168q215 0 215 -143q0 -59 -39 -84 q-38 -25 -108 -35t-162 -23q-127 -18 -208.5 -45t-136.5 -94t-55 -188zM270 291q0 102 70 134t208 50q139 17 185 47v-169q0 -99 -82 -149t-174 -50q-77 0 -142 32q-65 33 -65 105zM338 1321q0 -84 52 -145.5t145 -61.5q92 0 144 61t52 144q0 85 -52 147t-144 62 q-93 0 -145 -61t-52 -146zM411 1321q0 57 36.5 88t87.5 31q50 0 86.5 -31t36.5 -88q0 -56 -37 -89.5t-86 -33.5q-51 0 -87.5 32.5t-36.5 90.5z" />
<glyph unicode="&#xe6;" horiz-adv-x="1741" d="M43 279q0 -149 105 -228.5t268 -79.5q141 0 255 47.5t181 143.5q38 -66 92 -109.5t118.5 -64.5t135.5 -21q108 0 214.5 46t184.5 128t105 187h-229q-59 -174 -246 -174q-89 0 -150 43t-91 115q-29 71 -29 153h753q0 10 1 28t1 25q0 165 -52.5 289.5t-161 195t-271.5 70.5 q-99 0 -186.5 -33.5t-143.5 -105.5q-53 83 -142 111t-210 28q-190 0 -321 -80t-146 -270h231q18 168 230 168q203 0 203 -143q0 -60 -36 -85t-104 -34q-67 -10 -157 -23q-128 -18 -209.5 -45t-137 -94t-55.5 -188zM274 291q0 144 188 174q32 4 103 10t111 15t62 28v-153 q0 -99 -77 -155q-76 -56 -179 -56q-87 0 -147.5 31.5t-60.5 105.5zM957 618q8 119 75 196t183 77q125 0 195 -74q71 -73 71 -199h-524z" />
<glyph unicode="&#xe7;" d="M42 510q0 161 58.5 289t174 201t280.5 73q194 0 324.5 -95t144.5 -279h-229q-11 92 -75 143q-64 49 -165 49q-91 0 -157.5 -53t-99.5 -140q-35 -87 -35 -184q0 -94 33 -176.5t98 -133.5q64 -50 155 -50q67 0 119 28t85 82t42 127h229q-31 -202 -153 -310 q-109 -97 -276 -108l-73 -93l30 9q12 2 32 2q64 0 120 -46t56 -111q0 -63 -36 -104t-95 -60q-58 -19 -127 -19q-121 0 -193 45l37 80q106 -29 154 -29q100 0 100 78q0 41 -26.5 59.5t-65.5 18.5q-42 0 -76 -17l-49 36l115 151q-126 10 -222 68q-115 70 -174.5 192.5 t-59.5 276.5z" />
<glyph unicode="&#xe8;" d="M43 522q0 -161 60 -286t175.5 -195t274.5 -70q174 0 303 96q130 94 169 261h-218q-58 -174 -254 -174q-91 0 -154 42q-63 43 -94 114q-30 71 -30 155h762q4 27 4 76q0 144 -61.5 266t-174.5 194t-260 72q-149 0 -264 -74.5t-176.5 -200.5t-61.5 -276zM232 1481l286 -289 h169l-185 289h-270zM275 618q6 118 80 195.5t190 77.5q114 0 185 -80q72 -79 78 -193h-533z" />
<glyph unicode="&#xe9;" d="M43 522q0 -161 60 -286t175.5 -195t274.5 -70q174 0 303 96q130 94 169 261h-218q-58 -174 -254 -174q-91 0 -154 42q-63 43 -94 114q-30 71 -30 155h762q4 27 4 76q0 144 -61.5 266t-174.5 194t-260 72q-149 0 -264 -74.5t-176.5 -200.5t-61.5 -276zM275 618 q6 118 80 195.5t190 77.5q114 0 185 -80q72 -79 78 -193h-533zM379 1192h170l287 289h-277z" />
<glyph unicode="&#xea;" d="M43 522q0 -161 60 -286t175.5 -195t274.5 -70q174 0 303 96q130 94 169 261h-218q-58 -174 -254 -174q-91 0 -154 42q-63 43 -94 114q-30 71 -30 155h762q4 27 4 76q0 144 -61.5 266t-174.5 194t-260 72q-149 0 -264 -74.5t-176.5 -200.5t-61.5 -276zM209 1192h182 l144 182l139 -182h189l-216 289h-223zM275 618q6 118 80 195.5t190 77.5q114 0 185 -80q72 -79 78 -193h-533z" />
<glyph unicode="&#xeb;" d="M43 522q0 -161 60 -286t175.5 -195t274.5 -70q174 0 303 96q129 94 168 261h-217q-58 -174 -254 -174q-91 0 -154 42q-63 43 -94 114q-30 71 -30 155h762q4 27 4 76q0 144 -61.5 266t-174.5 194t-260 72q-149 0 -264 -74.5t-176.5 -200.5t-61.5 -276zM248 1212h229v218 h-229v-218zM275 618q6 118 80 195.5t190 77.5q114 0 185 -80q71 -79 77 -193h-532zM596 1212h228v218h-228v-218z" />
<glyph unicode="&#xec;" horiz-adv-x="445" d="M-73 1481l278 -289h168l-184 289h-262zM107 0h228l-1 13v1034h-227v-13v-1034z" />
<glyph unicode="&#xed;" horiz-adv-x="445" d="M65 1192h170l287 289h-274zM106 0h228v13v1034h-228v-13v-1034z" />
<glyph unicode="&#xee;" horiz-adv-x="445" d="M-107 1192h185l141 182l142 -182h188l-215 289h-223zM106 0h228v13v1034h-228v-13v-1034z" />
<glyph unicode="&#xef;" horiz-adv-x="445" d="M-62 1213h226v217h-226v-217zM107 0h227v13v1034h-227v-13v-1034zM283 1213h227v217h-227v-217z" />
<glyph unicode="&#xf0;" horiz-adv-x="1164" d="M69 510q0 -158 57 -280t165 -190q109 -69 258 -69q144 0 249 52q105 50 170 139.5t95.5 206.5t30.5 258q0 131 -37 251.5t-107 225.5t-169 189l186 90l-96 98l-213 -102q-101 70 -205 102l-156 -123q25 -7 81 -30q57 -22 91 -35l-191 -97l99 -102l219 106 q160 -139 215 -262h-4q-131 88 -289 88q-133 0 -236 -72q-102 -72 -158 -190q-55 -118 -55 -254zM301 496q0 98 28 176.5t92.5 125t166.5 46.5q87 0 148.5 -45.5t93 -121t31.5 -163.5q0 -92 -35 -174.5t-103 -134t-160 -51.5q-88 0 -147 46t-87 122.5t-28 173.5z" />
<glyph unicode="&#xf1;" horiz-adv-x="1118" d="M107 0v1047h215l4 -158q49 88 134 136q84 49 187 49q172 0 270.5 -91t98.5 -266v-717h-227v658q-3 123 -54 178t-155 55q-109 0 -177.5 -77.5t-68.5 -194.5v-619h-227zM205 1204q7 55 35 108q27 54 71 88q45 34 101 34q26 0 60 -10t82 -28q48 -17 80 -26q33 -10 63 -10 q79 0 106 90h111q-45 -238 -224 -238q-39 0 -91 20t-103.5 40.5t-91.5 20.5q-34 0 -58 -29t-24 -60h-117z" />
<glyph unicode="&#xf2;" horiz-adv-x="1164" d="M57 522q0 -159 63 -284q61 -126 179.5 -196.5t280.5 -70.5q163 0 283 70.5t183.5 195.5t63.5 285q0 162 -63 286.5t-183 194.5t-284 70q-163 0 -281 -70t-179 -195q-63 -125 -63 -286zM282 1481l281 -289h170l-184 289h-267zM286 522q0 95 34 180t100.5 137t159.5 52 q95 0 162 -52t101 -137t34 -180q0 -94 -34 -179t-101.5 -137t-161.5 -52q-92 0 -159 52t-101 137t-34 179z" />
<glyph unicode="&#xf3;" horiz-adv-x="1164" d="M57 522q0 -159 63 -284q61 -126 179.5 -196.5t280.5 -70.5q163 0 283 70.5t183.5 195.5t63.5 285q0 162 -63 286.5t-183 194.5t-284 70q-163 0 -281 -70t-179 -195q-63 -125 -63 -286zM286 522q0 95 34 180t100.5 137t159.5 52q95 0 162 -52t101 -137t34 -180 q0 -94 -34 -179t-101.5 -137t-161.5 -52q-92 0 -159 52t-101 137t-34 179zM432 1192h168l281 289h-268z" />
<glyph unicode="&#xf4;" horiz-adv-x="1164" d="M57 522q0 -159 63 -284q61 -126 179.5 -196.5t280.5 -70.5q163 0 283 70.5t183.5 195.5t63.5 285q0 162 -63 286.5t-183 194.5t-284 70q-163 0 -281 -70t-179 -195q-63 -125 -63 -286zM258 1192h186l136 182l141 -182h189l-215 289h-226zM286 522q0 95 34 180t100.5 137 t159.5 52q95 0 162 -52t101 -137t34 -180q0 -94 -34 -179t-101.5 -137t-161.5 -52q-92 0 -159 52t-101 137t-34 179z" />
<glyph unicode="&#xf5;" horiz-adv-x="1164" d="M57 522q0 -159 63 -284q61 -126 179.5 -196.5t280.5 -70.5q163 0 283 70.5t183.5 195.5t63.5 285q0 162 -63 286.5t-183 194.5t-284 70q-163 0 -281 -70t-179 -195q-63 -125 -63 -286zM227 1204h115q0 31 26 60t60 29q33 0 64.5 -10t78.5 -30.5t78 -30t64 -9.5 q96 0 154 68t71 169h-114q-20 -90 -101 -90q-29 0 -64 9.5t-82.5 27t-79.5 27.5t-56 10q-88 0 -144 -69.5t-70 -160.5zM286 522q0 95 34 180t100.5 137t159.5 52q95 0 162 -52t101 -137t34 -180q0 -94 -34 -179t-101.5 -137t-161.5 -52q-92 0 -159 52t-101 137t-34 179z" />
<glyph unicode="&#xf6;" horiz-adv-x="1164" d="M58 522q0 -159 61.5 -284.5t180 -196t280.5 -70.5q163 0 283 70.5t183.5 195.5t63.5 285q0 162 -63 286.5t-183 194.5t-284 70q-163 0 -281 -70t-179.5 -195t-61.5 -286zM287 522q0 95 33.5 180t100 137t159.5 52q95 0 162 -52t101 -137t34 -180q0 -94 -34 -179 t-101.5 -137t-161.5 -52q-92 0 -159 52t-100.5 137t-33.5 179zM297 1212h229v218h-229v-218zM643 1212h228v218h-228v-218z" />
<glyph unicode="&#xf7;" horiz-adv-x="1164" d="M73 408h1017v211h-1017v-211zM443 97q0 -58 36 -101t101 -43t102 43t37 101q0 56 -37 98.5t-102 42.5t-101 -42.5t-36 -98.5zM443 928q0 -57 36 -100q37 -43 101 -43q66 0 103.5 41.5t37.5 99.5q0 59 -38 103t-103 44t-101 -43t-36 -102z" />
<glyph unicode="&#xf8;" horiz-adv-x="1164" d="M50 0l69 -56l125 144q132 -117 336 -117q163 0 283 70.5t183.5 195.5t63.5 285q0 218 -127 381l135 144l-67 59l-125 -139q-136 106 -346 106q-163 0 -281 -70t-180 -195t-62 -286q0 -225 122 -376zM286 520q0 97 32.5 181.5t99.5 137t162 52.5q123 0 204 -84l-450 -495 q-48 93 -48 208zM383 238l449 493q45 -94 45 -211q0 -93 -33 -178t-100.5 -136.5t-163.5 -51.5q-109 0 -197 84z" />
<glyph unicode="&#xf9;" horiz-adv-x="1118" d="M107 381q0 -103 22 -178.5t68 -127.5q47 -51 120 -78q74 -26 173 -26q89 0 172 48.5t127 126.5h4v-146h223v13v1034h-227v-606q0 -131 -62 -209q-61 -78 -196 -78q-99 0 -148 57.5t-49 192.5v643h-227v-666zM262 1481l283 -289h166l-180 289h-269z" />
<glyph unicode="&#xfa;" horiz-adv-x="1118" d="M107 381q0 -103 22 -178.5t68 -127.5q47 -51 120 -78q74 -26 173 -26q89 0 172 48.5t127 126.5h4v-146h223v13v1034h-227v-606q0 -131 -62 -209q-61 -78 -196 -78q-99 0 -148 57.5t-49 192.5v643h-227v-666zM408 1192h164l286 289h-266z" />
<glyph unicode="&#xfb;" horiz-adv-x="1118" d="M107 381q0 -103 22 -178.5t68 -127.5q47 -51 120 -78q74 -26 173 -26q89 0 172 48.5t127 126.5h4v-146h223v13v1034h-227v-606q0 -131 -62 -209q-61 -78 -196 -78q-99 0 -148 58t-49 192v643h-227v-666zM232 1192h184l139 182l148 -182h182l-215 289h-217z" />
<glyph unicode="&#xfc;" horiz-adv-x="1118" d="M107 381q0 -103 22 -178.5t68 -127.5q47 -51 120 -78q74 -26 173 -26q89 0 172 48.5t127 126.5h4v-146h223v13v1034h-227v-606q0 -131 -62 -209q-61 -78 -196 -78q-99 0 -148 58t-49 192v643h-227v-666zM275 1213h227v217h-227v-217zM621 1213h227v217h-227v-217z" />
<glyph unicode="&#xfd;" horiz-adv-x="1028" d="M-1 1047l4 -8l388 -1035l-23 -80q-43 -141 -181 -141q-33 0 -85 10v-193q74 -12 156 -12q112 0 178.5 46t98.5 105.5t94 204.5l23 69l376 1034h-235l-266 -781h-5l-268 781h-255zM364 1192h166l285 289h-270z" />
<glyph unicode="&#xfe;" horiz-adv-x="1204" d="M118 -383h228v516h4q53 -82 146 -121q94 -41 203 -41q145 0 246 75.5t151 199.5q49 125 49 272q0 156 -54.5 282.5t-164 199.5t-268.5 73q-91 0 -177 -43.5t-131 -117.5h-4v538h-228v-801v-1032zM331 522q0 96 34.5 181t103.5 137q67 51 162 51q90 0 154 -51t96.5 -136 t32.5 -182q0 -98 -29 -181q-28 -83 -92 -135t-162 -52q-94 0 -162 51.5t-103 136.5t-35 180z" />
<glyph unicode="&#xff;" horiz-adv-x="1028" d="M0 1047l4 -8l387 -1035l-22 -80q-44 -141 -182 -141q-33 0 -84 10v-193q73 -12 155 -12q112 0 178.5 46t98.5 105.5t94 204.5l23 69l376 1034h-235l-266 -781h-5l-268 781h-254zM228 1213h231v217h-231v-217zM572 1213h231v217h-231v-217z" />
<glyph unicode="&#x152;" horiz-adv-x="2145" d="M52 717q0 -150 44.5 -286t130.5 -241.5t210 -164t276 -58.5q240 0 381 162v-129h991v217h-764v424h690v207h-690v379h752v223h-979v-121q-71 84 -159 118t-206 34q-156 0 -282 -60t-215 -167q-88 -107 -134 -245t-46 -292zM304 723q0 143 50 270t148.5 205t235.5 78 q110 0 188.5 -40.5t116.5 -108.5q38 -67 38 -146v-536q0 -63 -40.5 -127t-119.5 -106q-78 -42 -183 -42q-137 0 -235.5 78.5t-148.5 205.5t-50 269z" />
<glyph unicode="&#x153;" horiz-adv-x="1792" d="M52 527q0 -239 125.5 -397.5t357.5 -158.5q270 0 366 191q100 -191 377 -191q118 0 213.5 42.5t161 123t92.5 195.5h-227q-14 -85 -85 -131.5t-159 -46.5q-131 0 -201 87q-71 88 -74 224h760q0 131 -25 239.5t-81 192t-148 130t-223 46.5q-256 0 -368 -174 q-90 174 -361 174q-153 0 -267 -72.5t-174 -197t-60 -276.5zM286 531q0 145 65 252.5t198 107.5q137 0 201.5 -107.5t64.5 -252.5q0 -377 -266 -377q-142 0 -202 108q-61 109 -61 269zM999 618q6 113 79.5 193t183.5 80q129 0 195.5 -72t72.5 -201h-531z" />
<glyph unicode="&#x2c6;" horiz-adv-x="445" d="M-107 1192h185l141 182l142 -182h188l-215 289h-223z" />
<glyph unicode="&#x2dc;" horiz-adv-x="445" d="M-133 1204h112q0 29 26.5 59t56.5 30q34 0 66.5 -10t80.5 -30.5t79 -30t65 -9.5q97 0 151 66q55 66 68 171h-111q-16 -90 -92 -90q-32 0 -133 35q-71 31 -133 31q-90 0 -155 -58t-81 -164z" />
<glyph unicode="&#x2000;" horiz-adv-x="963" />
<glyph unicode="&#x2001;" horiz-adv-x="1927" />
<glyph unicode="&#x2002;" horiz-adv-x="963" />
<glyph unicode="&#x2003;" horiz-adv-x="1927" />
<glyph unicode="&#x2004;" horiz-adv-x="642" />
<glyph unicode="&#x2005;" horiz-adv-x="481" />
<glyph unicode="&#x2006;" horiz-adv-x="321" />
<glyph unicode="&#x2007;" horiz-adv-x="321" />
<glyph unicode="&#x2008;" horiz-adv-x="240" />
<glyph unicode="&#x2009;" horiz-adv-x="385" />
<glyph unicode="&#x200a;" horiz-adv-x="107" />
<glyph unicode="&#x2010;" horiz-adv-x="756" d="M86 445h584v217h-584v-217z" />
<glyph unicode="&#x2011;" horiz-adv-x="756" d="M86 445h584v217h-584v-217z" />
<glyph unicode="&#x2012;" horiz-adv-x="756" d="M86 445h584v217h-584v-217z" />
<glyph unicode="&#x2013;" horiz-adv-x="979" d="M-13 445h1004v217h-1004v-217z" />
<glyph unicode="&#x2014;" horiz-adv-x="1966" d="M-21 445h982h1026v217h-983h-1025v-217z" />
<glyph unicode="&#x2018;" horiz-adv-x="531" d="M141 877h250v270h-120q0 66 31 115q32 49 89 67v121q-111 -36 -180.5 -113t-69.5 -190v-270z" />
<glyph unicode="&#x2019;" horiz-adv-x="531" d="M141 877q115 14 182.5 95.5t67.5 199.5v278h-250v-278h125q0 -162 -125 -178v-117z" />
<glyph unicode="&#x201c;" horiz-adv-x="844" d="M99 877h247v270h-123q0 67 32.5 116t90.5 66v121q-110 -36 -179 -113q-68 -77 -68 -190v-270zM494 877h252v270h-121q0 67 31 116t90 66v121q-111 -36 -182 -114q-70 -77 -70 -189v-270z" />
<glyph unicode="&#x201d;" horiz-adv-x="844" d="M99 877q106 29 176.5 107t70.5 188v278h-247v-278h116q0 -135 -116 -178v-117zM494 877q112 29 182 106q70 78 70 189v278h-252v-278h127q0 -134 -127 -178v-117z" />
<glyph unicode="&#x201e;" horiz-adv-x="844" d="M99 0h116q0 -135 -116 -178v-119q106 31 176.5 109t70.5 188v275h-247v-275zM494 0h127q0 -134 -127 -178v-119q112 30 182 108t70 189v275h-252v-275z" />
<glyph unicode="&#x2022;" horiz-adv-x="979" d="M132 719q0 -96 49 -179q47 -83 129.5 -131t179.5 -48q95 0 178 48q83 49 131.5 131.5t48.5 178.5q0 99 -48.5 182.5t-131 132t-178.5 48.5q-98 0 -180 -48.5t-129 -131.5q-49 -83 -49 -183z" />
<glyph unicode="&#x2026;" horiz-adv-x="1966" d="M172 0h282v275h-282v-275zM844 0h279v275h-279v-275zM1510 0h282v275h-282v-275z" />
<glyph unicode="&#x202f;" horiz-adv-x="385" />
<glyph unicode="&#x2039;" horiz-adv-x="490" d="M90 441l306 -254v209l-187 153l187 158v205l-306 -246v-225z" />
<glyph unicode="&#x203a;" horiz-adv-x="490" d="M99 187l305 254v225l-305 246v-205l188 -158l-188 -153v-209z" />
<glyph unicode="&#x205f;" horiz-adv-x="481" />
<glyph unicode="&#x2122;" horiz-adv-x="1966" d="M111 1315h250v-700h161v700h254v135h-665v-135zM946 615h152v649h4l244 -649h112l248 649h4v-649h148v835h-225l-230 -594l-227 594h-230v-835z" />
<glyph unicode="&#x25fc;" horiz-adv-x="1045" d="M0 0v1045h1045v-1045h-1045z" />
</font>
</defs>
</svg>
